<?xml version="1.0" encoding="utf-8"?>
<!-- Generator: Adobe Illustrator 18.0.0, SVG Export Plug-In . SVG Version: 6.00 Build 0)  -->
<!DOCTYPE svg PUBLIC "-//W3C//DTD SVG 1.1//EN" "http://www.w3.org/Graphics/SVG/1.1/DTD/svg11.dtd">
<svg version="1.1" id="Layer_1" xmlns="http://www.w3.org/2000/svg" xmlns:xlink="http://www.w3.org/1999/xlink" x="0px" y="0px"
	 viewBox="0 109.2 207 248.7" enable-background="new 0 109.2 207 248.7" xml:space="preserve">
<path fill="#EE4323" d="M66.5,357.8c-14.9-6.4-28.9-22.9-29-39.6c0-18.4,11.6-33.7,26-44c-1.8,6.5-2.7,12.5,1.6,18.4
	c4,5.4,10.9,8.2,17.6,6.7c15.5-3.3,16.1-20.3,7-30.2c-9-9.8-17.8-20.8-14.4-35c1.8-7.1,6-13.7,11.7-18.6
	c-4.3,11.2,7.8,22.2,15.9,27.7c13.8,9.4,29,16.6,41.6,27.9c13.3,11.8,23.2,27.6,21.2,45.9c-2.1,19.9-18,33.7-35.7,40.8
	c37.5-8.4,76.3-37.3,77.1-79.1c0.6-34.2-22.9-60.6-51.9-75.8l-1.6-0.9c0.9,1.9,1.1,3.5,1.1,5.1c0.3-1.1,0.4-2.1,0.5-3.3
	c0,1.5-0.2,2.8-0.5,4.1v-0.7c-0.4,1.8-1.2,3.5-2.1,5.1l0.4-0.4c-5.8,9.6-21.6,11.8-29.3,1.8c-12.5-16,0.3-33.4,2-50.3
	c2.1-21.2-11.2-42-27.7-54.4c9.1,14.8-2.9,34.2-12.5,45.2c-9.2,10.4-20.5,19.3-30.8,28.9c-11.1,10.3-21.7,21.1-30.7,33.4
	c-18.1,24.3-29.3,54.7-21.1,85C10.8,331.8,37,351,66.5,357.8L66.5,357.8z"/>
</svg>
