<?xml version="1.0" encoding="utf-8"?>
<!-- Generator: Adobe Illustrator 18.0.0, SVG Export Plug-In . SVG Version: 6.00 Build 0)  -->
<!DOCTYPE svg PUBLIC "-//W3C//DTD SVG 1.1//EN" "http://www.w3.org/Graphics/SVG/1.1/DTD/svg11.dtd">
<svg version="1.1" xmlns="http://www.w3.org/2000/svg" xmlns:xlink="http://www.w3.org/1999/xlink" x="0px" y="0px"
	 viewBox="0 0 600.1 193.2" enable-background="new 0 0 600.1 193.2" xml:space="preserve">
<g id="Background">
</g>
<g id="Objects">
	<rect y="0" fill="#FFFFFF" width="600.1" height="193.2"/>
	<g>
		<path fill="#427BAD" d="M379.9,25.5c1,0,2.1,0.1,3.2,0.2l1.4-4.7l9.9,3l-1.4,4.7c3.6,1.9,6.7,4.4,9.1,7.5l4.3-2.3l4.9,9.2
			l-4.3,2.3c1.2,3.7,1.6,7.7,1.1,11.7l4.7,1.4l-3,9.9l-4.7-1.4c-1.9,3.6-4.4,6.7-7.5,9.1l2.3,4.3l-9.2,4.9l-2.3-4.3
			c-2.7,0.9-5.6,1.3-8.6,1.3v-7.4c9,0,17.3-5.8,20.1-14.9c3.4-11.1-2.9-22.8-14-26.2c-2-0.6-4.1-0.9-6.1-0.9V25.5z M362.1,31.7
			l-2.3-4.3l9.2-4.9l2.3,4.3c2.7-0.9,5.6-1.3,8.6-1.3v7.4c-9,0-17.3,5.8-20.1,14.9c-3.4,11.1,2.9,22.8,14,26.2l0,0
			c2,0.6,4.1,0.9,6.1,0.9v7.4c-1,0-2.1-0.1-3.2-0.2l-1.4,4.7l-9.9-3l1.4-4.7c-3.6-1.9-6.7-4.4-9.1-7.5l-4.3,2.3l-4.9-9.2l4.3-2.3
			c-1.2-3.7-1.6-7.7-1.1-11.7l-4.7-1.4l3-9.9l4.7,1.4C356.5,37.2,359.1,34.1,362.1,31.7z"/>
		<path fill="#427BAD" d="M572.8,79.3c1.4,0,2.9,0.1,4.3,0.2l1.9-6.4l13.5,4.1l-1.9,6.4c4.9,2.5,9.1,6,12.4,10.2l5.9-3.2l6.7,12.5
			l-5.9,3.2c1.6,5.1,2.2,10.5,1.6,16l6.4,1.9l-4.1,13.5l-6.4-1.9c-2.5,4.9-6,9.1-10.2,12.4l3.2,5.9l-12.5,6.7l-3.2-5.9
			c-3.7,1.2-7.7,1.8-11.7,1.8v-10.1c12.3,0,23.6-7.9,27.3-20.3c4.6-15.1-3.9-31.1-19-35.6c-2.8-0.8-5.6-1.2-8.3-1.2V79.3z
			 M548.7,87.8l-3.2-5.9l12.5-6.7l3.2,5.9c3.7-1.2,7.7-1.8,11.7-1.8v10.1c-12.3,0-23.6,7.9-27.3,20.3c-4.6,15.1,3.9,31.1,19,35.6
			l0,0c2.8,0.8,5.6,1.2,8.3,1.2v10.1c-1.4,0-2.9-0.1-4.3-0.2l-1.9,6.4l-13.5-4.1l1.9-6.4c-4.9-2.5-9.1-6-12.4-10.2l-5.9,3.2
			l-6.7-12.5l5.9-3.2c-1.6-5.1-2.2-10.5-1.6-16l-6.4-1.9l4.1-13.5l6.4,1.9C541,95.3,544.5,91.1,548.7,87.8z"/>
		<g>
			<g>
				<path fill-rule="evenodd" clip-rule="evenodd" fill="#013C5C" d="M378,46.9h175.6c3.6,0,6.5,2.9,6.5,6.5v110.9
					c0,3.6-2.9,6.5-6.5,6.5H378c-3.6,0-6.5-2.9-6.5-6.5V53.4C371.5,49.8,374.4,46.9,378,46.9z"/>
				<rect x="381.3" y="59.8" fill-rule="evenodd" clip-rule="evenodd" fill="#F06358" width="169.1" height="90.8"/>
				<circle fill-rule="evenodd" clip-rule="evenodd" fill="#6A7573" cx="465.8" cy="53.6" r="2.4"/>
				<rect x="461.8" y="156.2" fill-rule="evenodd" clip-rule="evenodd" fill="#6A7573" width="8" height="8"/>
				<polygon fill-rule="evenodd" clip-rule="evenodd" fill="#6A7573" points="371.5,170.8 560.1,170.8 592.9,184.8 338.7,184.8 				
					"/>
				<path fill-rule="evenodd" clip-rule="evenodd" fill="#013C5C" d="M338.7,184.8h254.2v3.7c0,2.6-2.1,4.7-4.7,4.7H343.4
					c-2.6,0-4.7-2.1-4.7-4.7V184.8z"/>
				<rect x="440.1" y="187.4" fill-rule="evenodd" clip-rule="evenodd" fill="#F06358" width="51.3" height="3.3"/>
			</g>
			<g>
				<path fill-rule="evenodd" clip-rule="evenodd" fill="#FFFFFF" d="M376,172c5.9,0,11.7,0,17.6,0c-0.9,0.5-1.8,1.1-2.7,1.6
					c-6.1,0-12.2,0-18.3,0C373.8,173,374.9,172.5,376,172z"/>
				<path fill-rule="evenodd" clip-rule="evenodd" fill="#FFFFFF" d="M408.3,172c5.9,0,11.7,0,17.6,0c-0.5,0.5-1,1.1-1.5,1.6
					c-6.1,0-12.2,0-18.3,0C406.9,173,407.6,172.5,408.3,172z"/>
				<path fill-rule="evenodd" clip-rule="evenodd" fill="#FFFFFF" d="M440.7,172c5.9,0,11.8,0,17.7,0c-0.1,0.5-0.2,1.1-0.2,1.6
					c-6.1,0-12.2,0-18.3,0C440.1,173,440.4,172.5,440.7,172z"/>
				<path fill-rule="evenodd" clip-rule="evenodd" fill="#FFFFFF" d="M473,172c5.9,0,11.8,0,17.7,0c0.3,0.5,0.6,1.1,0.9,1.6
					c-6.1,0-12.2,0-18.3,0C473.2,173,473.1,172.5,473,172z"/>
				<path fill-rule="evenodd" clip-rule="evenodd" fill="#FFFFFF" d="M505.4,172c5.9,0,11.7,0,17.6,0c0.7,0.5,1.5,1.1,2.2,1.6
					c-6.1,0-12.2,0-18.3,0C506.4,173,505.9,172.5,505.4,172z"/>
				<path fill-rule="evenodd" clip-rule="evenodd" fill="#FFFFFF" d="M537.7,172c5.9,0,11.8,0,17.7,0c1.1,0.5,2.2,1.1,3.4,1.6
					c-6.1,0-12.2,0-18.3,0C539.5,173,538.6,172.5,537.7,172z"/>
				<path fill-rule="evenodd" clip-rule="evenodd" fill="#FFFFFF" d="M370.3,174.8c6.2,0,12.5,0,18.8,0c-0.9,0.5-1.8,1.1-2.7,1.6
					c-6.5,0-13,0-19.4,0C368.1,175.8,369.2,175.3,370.3,174.8z"/>
				<path fill-rule="evenodd" clip-rule="evenodd" fill="#FFFFFF" d="M404.7,174.8c6.2,0,12.5,0,18.8,0c-0.5,0.5-1,1.1-1.5,1.6
					c-6.5,0-13,0-19.4,0C403.3,175.8,404,175.3,404.7,174.8z"/>
				<path fill-rule="evenodd" clip-rule="evenodd" fill="#FFFFFF" d="M439.1,174.8c6.3,0,12.5,0,18.8,0c-0.1,0.5-0.2,1.1-0.3,1.6
					c-6.5,0-13,0-19.4,0C438.5,175.8,438.8,175.3,439.1,174.8z"/>
				<path fill-rule="evenodd" clip-rule="evenodd" fill="#FFFFFF" d="M473.5,174.8c6.3,0,12.5,0,18.8,0c0.3,0.5,0.6,1.1,0.9,1.6
					c-6.5,0-13,0-19.4,0C473.7,175.8,473.6,175.3,473.5,174.8z"/>
				<path fill-rule="evenodd" clip-rule="evenodd" fill="#FFFFFF" d="M508,174.8c6.2,0,12.5,0,18.8,0c0.7,0.5,1.4,1.1,2.1,1.6
					c-6.5,0-13,0-19.4,0C508.9,175.8,508.4,175.3,508,174.8z"/>
				<path fill-rule="evenodd" clip-rule="evenodd" fill="#FFFFFF" d="M542.4,174.8c6.3,0,12.5,0,18.8,0c1.1,0.5,2.2,1.1,3.3,1.6
					c-6.5,0-13,0-19.4,0C544.2,175.8,543.3,175.3,542.4,174.8z"/>
				<path fill-rule="evenodd" clip-rule="evenodd" fill="#FFFFFF" d="M364.6,177.6c6.6,0,13.2,0,19.9,0c-0.9,0.5-1.8,1.1-2.7,1.6
					c-6.9,0-13.7,0-20.5,0C362.4,178.6,363.5,178.1,364.6,177.6z"/>
				<path fill-rule="evenodd" clip-rule="evenodd" fill="#FFFFFF" d="M401.1,177.6c6.6,0,13.3,0,19.9,0c-0.5,0.5-1,1.1-1.5,1.6
					c-6.9,0-13.7,0-20.5,0C399.7,178.6,400.4,178.1,401.1,177.6z"/>
				<path fill-rule="evenodd" clip-rule="evenodd" fill="#FFFFFF" d="M437.5,177.6c6.7,0,13.3,0,19.9,0c-0.1,0.5-0.2,1.1-0.3,1.6
					c-6.9,0-13.7,0-20.6,0C436.9,178.6,437.2,178.1,437.5,177.6z"/>
				<path fill-rule="evenodd" clip-rule="evenodd" fill="#FFFFFF" d="M474,177.6c6.6,0,13.3,0,19.9,0c0.3,0.5,0.6,1.1,0.9,1.6
					c-6.9,0-13.7,0-20.6,0C474.2,178.6,474.1,178.1,474,177.6z"/>
				<path fill-rule="evenodd" clip-rule="evenodd" fill="#FFFFFF" d="M510.5,177.6c6.6,0,13.3,0,19.9,0c0.7,0.5,1.4,1.1,2.1,1.6
					c-6.9,0-13.7,0-20.5,0C511.5,178.6,511,178.1,510.5,177.6z"/>
				<path fill-rule="evenodd" clip-rule="evenodd" fill="#FFFFFF" d="M547,177.6c6.6,0,13.3,0,19.9,0c1.1,0.5,2.2,1.1,3.3,1.6
					c-6.9,0-13.7,0-20.6,0C548.8,178.6,547.9,178.1,547,177.6z"/>
				<path fill-rule="evenodd" clip-rule="evenodd" fill="#FFFFFF" d="M358.9,180.3c35.6,0,71.2,0,106.8,0c35.6,0,71.3,0,106.9,0
					c1.1,0.5,2.2,1.1,3.3,1.6c-36.7,0-73.5,0-110.2,0c-36.7,0-73.5,0-110.2,0C356.7,181.4,357.8,180.9,358.9,180.3z"/>
			</g>
		</g>
		<polygon fill-rule="evenodd" clip-rule="evenodd" fill="#EE4E42" points="550.3,59.8 381.3,150.6 550.3,150.6 		"/>
		<g>
			<path fill="#B5D973" d="M466.4,15.1c1.4,0,2.9,0.1,4.3,0.2l1.9-6.4l13.5,4.1l-1.9,6.4c4.9,2.5,9.1,6,12.4,10.2l5.9-3.2l6.7,12.5
				l-5.9,3.2c1.6,5.1,2.2,10.5,1.6,16l6.4,1.9l-4.1,13.5l-6.4-1.9c-2.5,4.9-6,9.1-10.2,12.4l3.2,5.9l-12.5,6.7l-3.2-5.9
				c-3.7,1.2-7.7,1.8-11.7,1.8V82.4c12.3,0,23.6-7.9,27.3-20.3c4.6-15.1-3.9-31.1-19-35.6c-2.8-0.8-5.6-1.2-8.3-1.2V15.1z
				 M442.3,23.6l-3.2-5.9l12.5-6.7l3.2,5.9c3.7-1.2,7.7-1.8,11.7-1.8v10.1c-12.3,0-23.6,7.9-27.3,20.3c-4.6,15.1,3.9,31.1,19,35.6
				l0,0c2.8,0.8,5.6,1.2,8.3,1.2v10.1c-1.4,0-2.9-0.1-4.3-0.2l-1.9,6.4l-13.5-4.1l1.9-6.4c-4.9-2.5-9.1-6-12.4-10.2l-5.9,3.2
				l-6.7-12.5l5.9-3.2c-1.6-5.1-2.2-10.5-1.6-16l-6.4-1.9l4.1-13.5l6.4,1.9C434.6,31.1,438.1,26.9,442.3,23.6z"/>
			<path fill="#B3D6F5" d="M436.5,123.4l3.5,2.9l-7.3,8.7l-3.5-2.9c-2.5,1.9-5.2,3.4-8.2,4.3l0.4,4.6l-8.3,0.7v-12.8
				c5.1,0,10.1-2.2,13.6-6.3c6.3-7.5,5.3-18.7-2.2-24.9l0,0c-1.8-1.5-3.9-2.7-6.2-3.4c-1.7-0.5-3.4-0.8-5.2-0.8V80.7l3-0.3l0.4,4.6
				c3.1,0.4,6.1,1.3,8.8,2.8l2.9-3.5l8.7,7.3l-2.9,3.5c1.9,2.5,3.3,5.2,4.3,8.2l4.6-0.4l1,11.3l-4.6,0.4
				C438.9,117.7,438,120.7,436.5,123.4z M413.1,141.7l-3,0.3l-0.4-4.6c-3.1-0.4-6.1-1.3-8.8-2.8l-2.9,3.5l-8.7-7.3l2.9-3.5
				c-1.9-2.5-3.3-5.2-4.3-8.2l-4.6,0.4l-1-11.3l4.6-0.4c0.4-3.1,1.3-6.1,2.8-8.8l-3.5-2.9l7.3-8.7l3.5,2.9c2.5-1.9,5.2-3.3,8.2-4.3
				l-0.4-4.6l8.3-0.7v12.8c-5.1,0-10.1,2.2-13.6,6.3c-6.3,7.5-5.3,18.7,2.2,24.9c1.8,1.5,3.9,2.7,6.2,3.4c1.7,0.5,3.4,0.8,5.2,0.8
				V141.7z"/>
		</g>
		<g>
			
				<path fill-rule="evenodd" clip-rule="evenodd" fill="#FFFFFF" stroke="#000000" stroke-width="0.5669" stroke-miterlimit="22.9256" d="
				M525.7,143.4c10,0,18.1-8.1,18.1-18.1c0-10-8.1-18.1-18.1-18.1c-10,0-18.1,8.1-18.1,18.1C507.6,135.2,515.7,143.4,525.7,143.4z"
				/>
			<g>
				<path fill-rule="evenodd" clip-rule="evenodd" fill="#FFAE00" d="M525.7,108.9c9,0,16.3,7.3,16.3,16.3c0,9-7.3,16.3-16.3,16.3
					v3.7c11.1,0,20.1-9,20.1-20.1c0-11.1-9-20.1-20.1-20.1V108.9z M525.7,108.9L525.7,108.9l0-3.7h0c-11.1,0-20.1,9-20.1,20.1
					c0,11.1,9,20.1,20.1,20.1h0v-3.7h0c-9,0-16.3-7.3-16.3-16.3C509.3,116.3,516.6,108.9,525.7,108.9z"/>
				<path fill-rule="evenodd" clip-rule="evenodd" fill="#FFAE00" d="M525.7,113.4L525.7,113.4c0.5,0,0.9,0.4,0.9,0.9v10
					c0,0.5-0.4,0.9-0.9,0.9h0c-0.5,0-0.9-0.4-0.9-0.9v-10C524.7,113.8,525.2,113.4,525.7,113.4z"/>
				<path fill-rule="evenodd" clip-rule="evenodd" fill="#FFAE00" d="M518.2,118.6L518.2,118.6c0.3-0.4,0.9-0.4,1.3-0.1l6.1,5.4
					c0.4,0.3,0.4,0.9,0.1,1.3l0,0c-0.3,0.4-0.9,0.4-1.3,0.1l-6.1-5.4C517.9,119.6,517.8,119,518.2,118.6z"/>
				<circle fill-rule="evenodd" clip-rule="evenodd" fill="#FFAE00" cx="525.7" cy="111.4" r="1"/>
				<circle fill-rule="evenodd" clip-rule="evenodd" fill="#FFAE00" cx="540.1" cy="125.7" r="1"/>
				<circle fill-rule="evenodd" clip-rule="evenodd" fill="#FFAE00" cx="525.8" cy="140.1" r="1"/>
				<circle fill-rule="evenodd" clip-rule="evenodd" fill="#FFAE00" cx="511.4" cy="125.8" r="1"/>
				<path fill-rule="evenodd" clip-rule="evenodd" fill="#FFAE00" d="M525.7,127.7c1.3,0,2.4-1.1,2.4-2.4c0-1.3-1.1-2.4-2.4-2.4
					c-1.3,0-2.4,1.1-2.4,2.4C523.2,126.6,524.3,127.7,525.7,127.7z"/>
			</g>
		</g>
		<g>
			<path fill-rule="evenodd" clip-rule="evenodd" fill="#FFFFFF" d="M606.8,16.1c7.1,1.5,12.4,6.9,12.4,13.2l0,0
				c0,6.6-5.5,13.4-13,13.4h-33c-8,0-14.2-6.4-14.2-13.4l0,0c0-6.4,5.3-11.8,12.4-13.2c0-0.1,0-0.3,0-0.4c0-8.2,7.9-14.9,17.7-14.9
				c9.8,0,17.7,6.7,17.7,14.9C606.8,15.8,606.8,15.9,606.8,16.1z"/>
			<path fill-rule="evenodd" clip-rule="evenodd" fill="#91BDE3" d="M580.4,10.7c5,1,8.7,4.8,8.7,9.3l0,0c0,4.6-3.8,9.3-9.1,9.3h-23
				c-5.6,0-9.9-4.5-9.9-9.3l0,0c0-4.5,3.7-8.2,8.7-9.3c0-0.1,0-0.2,0-0.3C555.6,4.7,561.2,0,568,0c6.8,0,12.4,4.7,12.4,10.4
				C580.4,10.5,580.4,10.6,580.4,10.7z"/>
		</g>
		<path fill="#427BAD" d="M345.6,84c0.6,0,1.3,0,1.9,0.1l0.9-2.9l6,1.8l-0.9,2.9c2.2,1.1,4.1,2.7,5.5,4.5l2.6-1.4l3,5.6l-2.6,1.4
			c0.7,2.3,1,4.7,0.7,7.1l2.9,0.9l-1.8,6l-2.9-0.9c-1.1,2.2-2.7,4.1-4.5,5.5l1.4,2.6l-5.6,3l-1.4-2.6c-1.7,0.5-3.4,0.8-5.2,0.8V114
			c5.5,0,10.5-3.5,12.2-9c2-6.7-1.8-13.8-8.5-15.9c-1.2-0.4-2.5-0.6-3.7-0.6V84z M334.8,87.8l-1.4-2.6l5.6-3l1.4,2.6
			c1.7-0.5,3.4-0.8,5.2-0.8v4.5c-5.5,0-10.5,3.5-12.2,9c-2,6.7,1.8,13.8,8.5,15.9l0,0c1.2,0.4,2.5,0.6,3.7,0.6v4.5
			c-0.6,0-1.3,0-1.9-0.1l-0.9,2.9l-6-1.8l0.9-2.9c-2.2-1.1-4.1-2.7-5.5-4.5l-2.6,1.4l-3-5.6l2.6-1.4c-0.7-2.3-1-4.7-0.7-7.1
			l-2.9-0.9l1.8-6l2.9,0.9C331.4,91.2,332.9,89.3,334.8,87.8z"/>
		<g>
			<path fill="#CAE4FC" d="M475.5,126.9c1.3-0.5,1-2.5-0.5-2.4c-0.1,0-0.2,0-0.3,0.1l-0.1,0l-0.9,0.3l-0.9,0.3l-0.3,0.1
				c-0.5,0.2-0.8,0.6-0.9,1.1c0,0.9,0.8,1.5,1.6,1.2l0.3-0.1l1-0.3l1-0.3L475.5,126.9z"/>
			<path fill="#CAE4FC" d="M489.4,121.7c0.3-0.1,0.5-0.3,0.6-0.6c0.5-1-0.5-2.1-1.6-1.7l-0.5,0.2l-0.9,0.4l-0.8,0.3
				c-1.2,0.5-0.9,2.3,0.4,2.4c0.2,0,0.3,0,0.5-0.1l0.8-0.3l1-0.4L489.4,121.7z"/>
			<path fill="#CAE4FC" d="M502.8,115.6c1.2-0.6,0.7-2.4-0.7-2.3c-0.1,0-0.3,0.1-0.4,0.1l-0.7,0.3l-0.9,0.5l-0.6,0.3
				c-1.2,0.6-0.7,2.5,0.7,2.3c0.1,0,0.3-0.1,0.4-0.1l0.6-0.3l0.9-0.5L502.8,115.6z"/>
			<path fill="#CAE4FC" d="M515.7,108.4c0.5-0.3,0.7-1,0.5-1.6c-0.3-0.6-1.1-0.9-1.7-0.5l-0.7,0.4l-0.9,0.5l-0.5,0.3
				c-0.3,0.2-0.5,0.5-0.6,0.8c-0.2,1,0.9,1.8,1.8,1.3l0.5-0.3l0.9-0.5L515.7,108.4z"/>
			<path fill="#CAE4FC" d="M527.9,100.2c1.1-0.8,0.3-2.5-1.1-2.2c-0.1,0-0.3,0.1-0.4,0.2l-0.6,0.4l-0.8,0.6l-0.5,0.4
				c-1,0.8-0.4,2.4,0.9,2.2c0.2,0,0.4-0.1,0.5-0.2l0.5-0.4l0.9-0.6L527.9,100.2z"/>
			<path fill="#CAE4FC" d="M539.4,90.8c0.6-0.5,0.5-1.4-0.1-1.9c-0.5-0.4-1.1-0.3-1.6,0.1l-0.5,0.4l-0.8,0.7l-0.6,0.5
				c-1,0.9-0.1,2.5,1.2,2.1c0.2-0.1,0.3-0.1,0.4-0.2l0.6-0.5l0.8-0.7L539.4,90.8z"/>
			<path fill="#CAE4FC" d="M549.8,80.3c0.9-1.1-0.4-2.7-1.6-1.8c-0.1,0.1-0.1,0.1-0.2,0.2l-0.3,0.4l-0.7,0.8l-0.6,0.6
				c-0.9,0.9,0.1,2.5,1.4,2c0.2-0.1,0.3-0.2,0.4-0.3l0.6-0.6l0.7-0.8L549.8,80.3z"/>
			<path fill="#CAE4FC" d="M559,68.8c0.7-1-0.4-2.4-1.6-1.8c-0.2,0.1-0.3,0.2-0.4,0.4l-0.2,0.3l-0.6,0.9l-0.6,0.9
				c-0.8,1.1,0.6,2.5,1.7,1.7c0.1-0.1,0.2-0.2,0.3-0.3l0.6-0.9l0.6-0.9L559,68.8z"/>
			<polygon fill="#CAE4FC" points="552,60.2 569.2,51 567.7,70.5 			"/>
		</g>
		<g>
			<path fill="#CAE4FC" d="M470.6,110.9c0.4-0.2,0.6-0.7,0.6-1.1c-0.1-0.9-1-1.5-1.8-1l-0.6,0.3l-0.8,0.5l-0.7,0.4
				c-1.1,0.7-0.6,2.5,0.8,2.3c0.1,0,0.3-0.1,0.4-0.1l0.7-0.4l0.9-0.5L470.6,110.9z"/>
			<path fill="#CAE4FC" d="M483,102.8c1.1-0.8,0.3-2.5-1-2.2c-0.1,0-0.3,0.1-0.4,0.2l-0.5,0.4l-0.8,0.6l-0.7,0.5
				c-1,0.7-0.5,2.4,0.8,2.2c0.2,0,0.4-0.1,0.5-0.2l0.7-0.5l0.8-0.6L483,102.8z"/>
			<path fill="#CAE4FC" d="M494.6,93.7c1-0.8,0.1-2.5-1.2-2.1c-0.2,0.1-0.3,0.1-0.4,0.2l-0.6,0.5l-0.7,0.6l-0.5,0.4
				c-0.4,0.4-0.6,1-0.3,1.5c0.3,0.7,1.3,0.9,1.9,0.4l0.5-0.4l0.7-0.6L494.6,93.7z"/>
			<path fill="#CAE4FC" d="M505.1,83.3c0.9-1-0.2-2.5-1.4-1.9c-0.2,0.1-0.3,0.2-0.4,0.3l-0.2,0.3l-0.6,0.7l-0.6,0.7l-0.1,0.1
				c-0.9,1,0.2,2.6,1.5,1.9c0.1-0.1,0.2-0.1,0.3-0.2l0.2-0.2l0.6-0.7l0.6-0.7L505.1,83.3z"/>
			<path fill="#CAE4FC" d="M514.2,71.5c0.7-1.1-0.5-2.4-1.7-1.7c-0.1,0.1-0.3,0.2-0.4,0.4l-0.1,0.2l-0.5,0.7l-0.5,0.7l-0.2,0.3
				c-0.8,1.1,0.5,2.5,1.7,1.7c0.1-0.1,0.2-0.2,0.3-0.3l0.2-0.3l0.5-0.8l0.5-0.8L514.2,71.5z"/>
			<path fill="#CAE4FC" d="M521.3,58.5c0.5-1.1-0.8-2.2-1.8-1.5c-0.2,0.1-0.3,0.3-0.4,0.5l-0.2,0.4l-0.4,0.8l-0.4,0.8l-0.1,0.2
				c-0.1,0.3-0.1,0.5-0.1,0.8c0.3,1.1,1.8,1.3,2.3,0.3l0.1-0.2l0.4-0.8l0.4-0.8L521.3,58.5z"/>
			<path fill="#CAE4FC" d="M525.9,44.3c0.3-1.3-1.4-2.1-2.2-1c-0.1,0.1-0.2,0.3-0.2,0.4l-0.2,0.7l-0.2,0.9l-0.2,0.8
				c-0.1,0.5,0.1,1.1,0.6,1.4c0.7,0.4,1.6,0,1.8-0.8l0.2-0.8l0.2-0.9L525.9,44.3z"/>
			<polygon fill="#CAE4FC" points="515.3,37.1 526.5,20.2 534.7,38.6 			"/>
		</g>
	</g>
	<g>
		<g>
			<path fill="#42454A" d="M51.6,97.3c0,2.6-0.9,4.6-2.8,6.1c-1.9,1.5-4.3,2.3-7.2,2.3c-1.9,0-3.9-0.3-6-1c-2.1-0.7-4-1.7-5.6-3.1
				l3.2-4.5c2.7,2.1,5.6,3.1,8.6,3.1c0.9,0,1.7-0.2,2.2-0.6c0.5-0.4,0.8-0.9,0.8-1.5c0-0.6-0.4-1.2-1.1-1.7c-0.8-0.5-1.8-1-3.3-1.4
				c-1.4-0.5-2.5-0.8-3.3-1.2c-0.8-0.3-1.6-0.8-2.6-1.4c-2-1.2-2.9-3-2.9-5.4c0-2.4,1-4.3,2.9-5.9c1.9-1.5,4.4-2.3,7.5-2.3
				c3.1,0,6.1,1,9.2,3.1L48.5,87c-2.2-1.5-4.5-2.3-6.7-2.3c-2.2,0-3.3,0.6-3.3,1.8c0,0.7,0.4,1.2,1.1,1.6c0.7,0.4,1.9,0.8,3.5,1.4
				c1.6,0.5,2.8,0.9,3.5,1.2c0.7,0.3,1.5,0.7,2.5,1.3C50.7,93,51.6,94.8,51.6,97.3z"/>
			<path fill="#42454A" d="M79.2,105.4h-6.8v-3.1c-1.9,2.3-4.2,3.5-6.9,3.5c-2.7,0-5.1-0.8-6.9-2.4c-1.9-1.6-2.8-3.7-2.8-6.4
				s1-4.6,2.9-6c1.9-1.3,4.6-2,7.9-2H72V89c0-2.8-1.5-4.1-4.4-4.1c-1.3,0-2.6,0.2-4,0.7c-1.4,0.5-2.6,1.1-3.5,1.9l-3.2-4.7
				c3.4-2.5,7.3-3.7,11.7-3.7c3.1,0,5.7,0.8,7.7,2.4c2,1.6,3,4.1,3,7.5V105.4z M71.9,95.5v-1.3h-4.5c-2.9,0-4.3,0.9-4.3,2.7
				c0,0.9,0.3,1.6,1,2.1c0.7,0.5,1.7,0.7,3,0.7c1.3,0,2.4-0.4,3.4-1.2C71.4,97.9,71.9,96.8,71.9,95.5z"/>
			<path fill="#42454A" d="M94.1,84.7v11.6c0,1,0.3,1.8,0.8,2.3c0.5,0.6,1.1,0.8,1.8,0.8c1.3,0,2.5-0.6,3.4-1.8l2.7,5.1
				c-2.2,2.1-4.6,3.1-7.1,3.1c-2.5,0-4.6-0.8-6.3-2.5c-1.7-1.6-2.6-3.9-2.6-6.7v-12h-3v-5.2h3v-7.8h7.3v7.8h6.3v5.2H94.1z"/>
			<path fill="#42454A" d="M120.4,85.8c-2.2,0-3.8,0.8-4.8,2.3c-1.1,1.5-1.6,3.5-1.6,6v11.2h-7.2V79.5h7.2v3.4
				c0.9-1.1,2.1-2,3.5-2.7c1.4-0.7,2.8-1.1,4.3-1.2l0,6.8H120.4z"/>
			<path fill="#42454A" d="M127.1,76.2c-0.8-0.8-1.2-1.8-1.2-3c0-1.2,0.4-2.2,1.2-3c0.8-0.8,1.8-1.2,3-1.2c1.2,0,2.2,0.4,3,1.2
				c0.8,0.8,1.2,1.8,1.2,3c0,1.2-0.4,2.2-1.2,3c-0.8,0.8-1.8,1.2-3,1.2C129,77.4,128,77,127.1,76.2z M133.8,105.4h-7.2V79.5h7.2
				V105.4z"/>
			<path fill="#42454A" d="M162.6,105.4h-6.8v-3.1c-1.9,2.3-4.2,3.5-6.9,3.5s-5.1-0.8-6.9-2.4c-1.9-1.6-2.8-3.7-2.8-6.4s1-4.6,2.9-6
				c1.9-1.3,4.6-2,7.9-2h5.4V89c0-2.8-1.5-4.1-4.4-4.1c-1.3,0-2.6,0.2-4,0.7c-1.4,0.5-2.6,1.1-3.5,1.9l-3.2-4.7
				c3.4-2.5,7.3-3.7,11.7-3.7c3.1,0,5.7,0.8,7.7,2.4c2,1.6,3,4.1,3,7.5V105.4z M155.3,95.5v-1.3h-4.5c-2.9,0-4.3,0.9-4.3,2.7
				c0,0.9,0.3,1.6,1,2.1c0.7,0.5,1.7,0.7,3,0.7c1.3,0,2.4-0.4,3.4-1.2C154.9,97.9,155.3,96.8,155.3,95.5z"/>
			<path fill="#0090CF" d="M190.8,105.4l-16-39.7h-0.2c0.2,2.4,0.2,4.9,0.2,7.5v32.2h-2.9v-43h4.6l15.2,37.8h0.2l15.2-37.8h4.5v43
				h-3V72.8c0-2.3,0.1-4.6,0.4-7.1h-0.2l-16.1,39.7H190.8z"/>
			<path fill="#0090CF" d="M244.6,90.2h-17.5l-6,15.2h-3.3l17.3-43.2h1.9l16.9,43.2h-3.4L244.6,90.2z M228.2,87.5h15.4L237.7,72
				c-0.5-1.2-1.1-2.9-1.8-5.1c-0.5,1.9-1.1,3.6-1.7,5.1L228.2,87.5z"/>
			<path fill="#0090CF" d="M260,105.4v-43h3v43H260z"/>
			<path fill="#0090CF" d="M275.2,105.4v-43h3v40.2h20.5v2.8H275.2z"/>
		</g>
		<g>
			<path fill="#727272" d="M141.5,135.2c-1.2,0-2.1-0.5-2.7-1.4h-0.1l0,0.6c0,0.4,0,0.8,0,1.2v3h-0.7v-11.5h0.6l0.1,1.1h0
				c0.5-0.9,1.4-1.3,2.6-1.3c1.1,0,1.9,0.4,2.4,1.1c0.6,0.7,0.8,1.7,0.8,3.1c0,1.3-0.3,2.3-0.9,3
				C143.3,134.9,142.5,135.2,141.5,135.2z M141.5,134.6c0.8,0,1.4-0.3,1.9-0.9c0.4-0.6,0.7-1.4,0.7-2.5c0-2.3-0.8-3.5-2.5-3.5
				c-0.9,0-1.6,0.3-2,0.8c-0.4,0.5-0.6,1.3-0.6,2.5v0.2c0,1.2,0.2,2.1,0.6,2.7C139.9,134.3,140.5,134.6,141.5,134.6z"/>
			<path fill="#727272" d="M153.6,131.1c0,1.3-0.3,2.3-0.9,3c-0.6,0.7-1.5,1.1-2.6,1.1c-0.7,0-1.3-0.2-1.8-0.5s-0.9-0.8-1.2-1.4
				c-0.3-0.6-0.4-1.4-0.4-2.2c0-1.3,0.3-2.3,0.9-3c0.6-0.7,1.5-1.1,2.6-1.1c1.1,0,1.9,0.4,2.6,1.1
				C153.3,128.8,153.6,129.8,153.6,131.1z M147.3,131.1c0,1.1,0.2,1.9,0.7,2.6c0.5,0.6,1.2,0.9,2,0.9s1.6-0.3,2-0.9
				c0.5-0.6,0.7-1.5,0.7-2.6c0-1.1-0.2-1.9-0.7-2.5c-0.5-0.6-1.2-0.9-2-0.9s-1.6,0.3-2,0.9C147.5,129.2,147.3,130,147.3,131.1z"/>
			<path fill="#727272" d="M162.1,135.1l-1.7-5.3c-0.1-0.4-0.3-0.9-0.4-1.6h0l-0.2,0.5l-0.3,1.1l-1.8,5.3h-0.7l-2.3-7.9h0.8l1.3,4.6
				c0.3,1.1,0.5,2,0.6,2.5h0c0.3-1.1,0.5-1.9,0.6-2.3l1.6-4.8h0.7l1.6,4.8c0.4,1.1,0.6,1.9,0.6,2.3h0c0-0.3,0.2-1.2,0.6-2.5l1.2-4.6
				h0.7l-2.2,7.9H162.1z"/>
			<path fill="#727272" d="M169.8,135.2c-1.2,0-2.1-0.4-2.7-1.1c-0.6-0.7-1-1.7-1-3c0-1.3,0.3-2.3,0.9-3c0.6-0.8,1.5-1.1,2.5-1.1
				c0.9,0,1.7,0.3,2.2,1s0.8,1.5,0.8,2.7v0.6h-5.7c0,1.1,0.3,1.9,0.8,2.5c0.5,0.6,1.2,0.9,2.1,0.9c0.5,0,0.9,0,1.2-0.1
				c0.3-0.1,0.8-0.2,1.3-0.4v0.7c-0.4,0.2-0.9,0.3-1.2,0.4C170.6,135.2,170.2,135.2,169.8,135.2z M169.6,127.6
				c-0.8,0-1.4,0.3-1.8,0.8c-0.5,0.5-0.7,1.2-0.8,2.2h4.9c0-0.9-0.2-1.6-0.6-2.2C170.8,127.9,170.3,127.6,169.6,127.6z"/>
			<path fill="#727272" d="M177.9,127c0.3,0,0.7,0,1.1,0.1l-0.1,0.7c-0.3-0.1-0.7-0.1-1-0.1c-0.7,0-1.2,0.3-1.7,0.9
				c-0.4,0.6-0.6,1.3-0.6,2.2v4.4h-0.7v-7.9h0.6l0.1,1.4h0.1c0.3-0.6,0.7-1,1-1.2C176.9,127.1,177.4,127,177.9,127z"/>
			<path fill="#727272" d="M183.8,135.2c-1.2,0-2.1-0.4-2.7-1.1c-0.6-0.7-1-1.7-1-3c0-1.3,0.3-2.3,0.9-3c0.6-0.8,1.5-1.1,2.5-1.1
				c0.9,0,1.7,0.3,2.2,1s0.8,1.5,0.8,2.7v0.6h-5.7c0,1.1,0.3,1.9,0.8,2.5c0.5,0.6,1.2,0.9,2.1,0.9c0.5,0,0.9,0,1.2-0.1
				c0.3-0.1,0.8-0.2,1.3-0.4v0.7c-0.4,0.2-0.9,0.3-1.2,0.4C184.7,135.2,184.2,135.2,183.8,135.2z M183.6,127.6
				c-0.8,0-1.4,0.3-1.8,0.8c-0.5,0.5-0.7,1.2-0.8,2.2h4.9c0-0.9-0.2-1.6-0.6-2.2C184.8,127.9,184.3,127.6,183.6,127.6z"/>
			<path fill="#727272" d="M191.7,127c0.6,0,1.1,0.1,1.5,0.3c0.4,0.2,0.8,0.6,1.1,1.1h0c0-0.6,0-1.2,0-1.8v-2.9h0.7v11.4h-0.5
				l-0.2-1.2h-0.1c-0.6,0.9-1.5,1.4-2.6,1.4c-1.1,0-1.9-0.3-2.5-1c-0.6-0.7-0.9-1.7-0.9-3c0-1.4,0.3-2.4,0.9-3.1
				C189.8,127.4,190.6,127,191.7,127z M191.7,127.7c-0.9,0-1.5,0.3-2,0.9c-0.4,0.6-0.7,1.5-0.7,2.6c0,2.2,0.9,3.4,2.6,3.4
				c0.9,0,1.6-0.3,2-0.8c0.4-0.5,0.6-1.4,0.6-2.6v-0.1c0-1.2-0.2-2.1-0.6-2.6C193.3,127.9,192.6,127.7,191.7,127.7z"/>
			<path fill="#727272" d="M204.9,127c1.1,0,1.9,0.3,2.5,1c0.6,0.7,0.8,1.7,0.8,3.1c0,1.3-0.3,2.3-0.9,3.1s-1.4,1.1-2.5,1.1
				c-0.6,0-1.1-0.1-1.5-0.4c-0.5-0.2-0.8-0.6-1.1-1h-0.1l-0.2,1.2h-0.5v-11.4h0.7v2.9c0,0.4,0,0.8,0,1.2l0,0.6h0.1
				c0.3-0.5,0.7-0.8,1.1-1.1S204.3,127,204.9,127z M204.9,127.7c-0.9,0-1.6,0.3-2,0.8c-0.4,0.5-0.6,1.4-0.6,2.6v0.1
				c0,1.2,0.2,2.1,0.6,2.6s1.1,0.8,2,0.8c0.9,0,1.5-0.3,2-0.9c0.4-0.6,0.7-1.5,0.7-2.6C207.5,128.8,206.6,127.7,204.9,127.7z"/>
			<path fill="#727272" d="M209.1,127.2h0.7l1.7,4.5c0.5,1.4,0.8,2.3,1,2.8h0c0.2-0.6,0.5-1.6,1-2.8l1.7-4.4h0.7l-3.6,9.2
				c-0.3,0.7-0.5,1.3-0.7,1.5c-0.2,0.3-0.4,0.5-0.7,0.6c-0.3,0.1-0.6,0.2-0.9,0.2c-0.3,0-0.6-0.1-0.9-0.2v-0.6
				c0.3,0.1,0.6,0.1,0.9,0.1c0.2,0,0.5-0.1,0.7-0.2s0.4-0.3,0.5-0.5c0.2-0.2,0.3-0.6,0.5-1.2c0.2-0.5,0.3-0.9,0.4-1L209.1,127.2z"/>
		</g>
		<g>
			<path fill="#166DEE" d="M240.8,137.5l-3.6,0.8c-1.5,0.2-2.8,0.4-4.2,0.4c-7,0-9.7-5.2-9.7-9.2c0-4.9,3.8-9.5,10.3-9.5
				c1.4,0,2.7,0.2,3.9,0.5c1.9,0.5,2.8,1.2,3.4,1.6l-2.1,2l-0.9,0.2l0.6-1c-0.9-0.8-2.4-2.4-5.5-2.4c-4,0-7.1,3.1-7.1,7.5
				c0,4.8,3.5,9.3,9,9.3c1.6,0,2.5-0.3,3.2-0.6V133l-3.9,0.2l2-1.1h5.4l-0.7,0.6c-0.2,0.2-0.2,0.2-0.3,0.4c0,0.2-0.1,1-0.1,1.2
				V137.5"/>
			<path fill="#F7BF34" d="M265.8,135.8c0.6-0.8,0.8-1.8,0.8-2.8c0-2.2-1.1-6.5-4.2-6.5c-0.8,0-1.7,0.3-2.3,0.9
				c-1,0.9-1.2,2-1.2,3.1c0,2.5,1.2,6.6,4.3,6.6C264.2,137.1,265.2,136.6,265.8,135.8L265.8,135.8L265.8,135.8z M262.6,137.9
				c-4,0-6.2-3.1-6.2-6c0-3.3,2.7-6.2,6.6-6.2c3.7,0,6.1,2.9,6.1,6C269.1,134.7,266.8,137.9,262.6,137.9L262.6,137.9L262.6,137.9z"
				/>
			<path fill="#D3402B" d="M252.1,135.8c0.6-0.8,0.8-1.8,0.8-2.8c0-2.2-1.1-6.5-4.2-6.5c-0.8,0-1.7,0.3-2.3,0.9
				c-1,0.9-1.2,2-1.2,3.1c0,2.5,1.2,6.6,4.3,6.6C250.5,137.1,251.5,136.6,252.1,135.8L252.1,135.8L252.1,135.8z M248.9,137.9
				c-4,0-6.2-3.1-6.2-6c0-3.3,2.7-6.2,6.6-6.2c3.7,0,6.1,2.9,6.1,6C255.3,134.7,253,137.9,248.9,137.9L248.9,137.9L248.9,137.9z"/>
			<path fill="#166DEE" d="M277.6,133.5c0.6-0.6,0.6-1.4,0.6-1.9c0-1.8-1.1-4.7-3.2-4.7c-0.7,0-1.4,0.3-1.8,0.8
				c-0.4,0.5-0.6,1.2-0.6,1.9c0,1.7,1,4.5,3.2,4.5C276.5,134.2,277.1,133.9,277.6,133.5L277.6,133.5L277.6,133.5z M276.8,138.3
				c-0.2,0-0.3,0-0.6,0c-0.2,0-1.6,0.1-2.7,0.4c-0.6,0.2-2.2,0.8-2.2,2.6c0,1.8,1.8,3.1,4.5,3.1c2.4,0,3.7-1.2,3.7-2.7
				C279.6,140.3,278.8,139.7,276.8,138.3L276.8,138.3L276.8,138.3z M278.6,127c0.6,0.5,1.8,1.5,1.8,3.4c0,1.9-1.1,2.8-2.1,3.6
				c-0.3,0.3-0.7,0.7-0.7,1.2c0,0.6,0.4,0.9,0.7,1.1l0.9,0.7c1.1,0.9,2.1,1.8,2.1,3.6c0,2.4-2.3,4.8-6.7,4.8c-3.7,0-5.5-1.8-5.5-3.6
				c0-0.9,0.5-2.2,2-3.1c1.6-1,3.7-1.1,4.9-1.2c-0.4-0.5-0.8-0.9-0.8-1.7c0-0.4,0.1-0.7,0.3-1c-0.3,0-0.6,0.1-0.8,0.1
				c-2.7,0-4.2-2-4.2-4c0-1.2,0.5-2.5,1.6-3.4c1.4-1.2,3.2-1.4,4.5-1.4h5.2l-1.6,0.9H278.6L278.6,127z"/>
			<path fill="#009A57" d="M286.7,136.7c-0.8-0.1-1-0.2-1-1.2v-14.4c0-0.1,0-0.1,0-0.2c0.1-0.9,0.4-1,1.1-1.5h-3.6l-1.9,0.9h1.9v0
				l0,0v15.7c0,0.5-0.1,0.6-0.7,1.4h4.5l0.9-0.6C287.6,136.8,287.1,136.8,286.7,136.7"/>
			<path fill="#D3402B" d="M294.7,129.4c0.5-0.2,0.7-0.3,0.7-0.7c0-1-1.1-2.2-2.5-2.2c-1,0-2.9,0.8-2.9,3.5c0,0.4,0.1,0.9,0.1,1.3
				L294.7,129.4L294.7,129.4z M296.2,137.4c-0.8,0.4-1.7,0.5-2.5,0.5c-0.8,0-2.1-0.1-3.4-1c-1.8-1.3-2.6-3.4-2.6-5.3
				c0-3.9,3.2-5.8,5.8-5.8c0.9,0,1.9,0.2,2.6,0.7c1.3,0.8,1.6,1.9,1.8,2.5l-6,2.4c0,0-1.8,0.7-1.8,0.8c0.8,2.8,2.8,4.5,5.1,4.5
				c1.3,0,2.2-0.5,3.1-0.9l-1.3,1.3C296.8,137.1,296.5,137.3,296.2,137.4z"/>
		</g>
	</g>
</g>
</svg>
