<?xml version="1.0" encoding="utf-8"?>
<!-- Generator: Adobe Illustrator 18.0.0, SVG Export Plug-In . SVG Version: 6.00 Build 0)  -->
<!DOCTYPE svg PUBLIC "-//W3C//DTD SVG 1.1//EN" "http://www.w3.org/Graphics/SVG/1.1/DTD/svg11.dtd">
<svg version="1.1" xmlns="http://www.w3.org/2000/svg" xmlns:xlink="http://www.w3.org/1999/xlink" x="0px" y="0px"
	 viewBox="0 0 1029.3 619.2" enable-background="new 0 0 1029.3 619.2" xml:space="preserve">
<g id="Layer_1">
</g>
<g id="New_Hampshire">
</g>
<g id="Vermont">
</g>
<g id="New_York">
</g>
<g id="Massachusetts">
</g>
<g id="Rhode_Island_1_">
</g>
<g id="Delaware">
</g>
<g id="Connecticut">
</g>
<g id="Pennsylvania">
</g>
<g id="New_Jersey">
</g>
<g id="Maryland">
</g>
<g id="West_Virginia">
</g>
<g id="Kentucky">
</g>
<g id="Ohio">
</g>
<g id="Michigan">
</g>
<g id="Indiana">
</g>
<g id="Illinois">
</g>
<g id="Wisconsin">
</g>
<g id="Iowa">
</g>
<g id="Minnesota">
</g>
<g id="Missouri">
</g>
<g id="Arkansas">
</g>
<g id="North_Dakota">
</g>
<g id="South_Dakota">
</g>
<g id="Nebraska">
</g>
<g id="Kansas">
</g>
<g id="Oklahoma">
</g>
<g id="Montana">
</g>
<g id="Wyoming">
</g>
<g id="Colorado">
</g>
<g id="New_Mexico">
</g>
<g id="Arizona">
</g>
<g id="Nevada">
</g>
<g id="Utah">
</g>
<g id="Idaho">
</g>
<g id="California">
</g>
<g id="Oregon">
</g>
<g id="Washington">
</g>
<g id="Alaska">
	<path fill-rule="evenodd" clip-rule="evenodd" fill="#959595" d="M1.5,618.4c0.5-2.2-2-1.4-1.5-3.6c2,1.1,3.7,2.6,1.5,4.4
		C0.7,619,1.1,618.4,1.5,618.4z"/>
</g>
<g id="Hawaii">
</g>
<g id="Maine">
</g>
<g id="Virginia">
</g>
<g id="Tennessee">
</g>
<g id="North_Carolina">
</g>
<g id="South_Carolina">
</g>
<g id="Georgia">
</g>
<g id="Alabama">
</g>
<g id="Mississippi">
</g>
<g id="Florida">
</g>
<g id="Louisiana">
</g>
<g id="Texas">
	<g>
		<line fill-rule="evenodd" clip-rule="evenodd" fill="#CFCFCF" x1="935.4" y1="193.7" x2="934.7" y2="193.3"/>
		<line fill-rule="evenodd" clip-rule="evenodd" fill="#CFCFCF" x1="934.7" y1="193.3" x2="933.9" y2="193.7"/>
		<line fill-rule="evenodd" clip-rule="evenodd" fill="#CFCFCF" x1="686" y1="141.4" x2="686.7" y2="141.7"/>
		<line fill-rule="evenodd" clip-rule="evenodd" fill="#CFCFCF" x1="686.7" y1="141.7" x2="687.4" y2="141.4"/>
		<line fill-rule="evenodd" clip-rule="evenodd" fill="#CFCFCF" x1="988.8" y1="164.6" x2="989.2" y2="165.4"/>
		<line fill-rule="evenodd" clip-rule="evenodd" fill="#CFCFCF" x1="917.9" y1="288.2" x2="917.2" y2="287.9"/>
		<line fill-rule="evenodd" clip-rule="evenodd" fill="#CFCFCF" x1="917.2" y1="287.9" x2="916.5" y2="288.2"/>
		<line fill-rule="evenodd" clip-rule="evenodd" fill="#CFCFCF" x1="670.7" y1="348.6" x2="671.1" y2="347.9"/>
		<line fill-rule="evenodd" clip-rule="evenodd" fill="#CFCFCF" x1="671.1" y1="347.9" x2="670.7" y2="347.1"/>
		<path fill-rule="evenodd" clip-rule="evenodd" fill="#CFCFCF" d="M688.9,313.7c1.2-0.2,1.3,0.7,2.2,0.7
			C691.4,315.8,687.8,315.5,688.9,313.7z"/>
		<line fill-rule="evenodd" clip-rule="evenodd" fill="#CFCFCF" x1="80.3" y1="56.3" x2="80.6" y2="55.6"/>
		<path fill-rule="evenodd" clip-rule="evenodd" fill="#CFCFCF" d="M78.8,55.6c0.5,0,1.2,0,1.8,0"/>
		<line fill-rule="evenodd" clip-rule="evenodd" fill="#CFCFCF" x1="80.6" y1="55.6" x2="80.3" y2="54.8"/>
		<line fill-rule="evenodd" clip-rule="evenodd" fill="#CFCFCF" x1="668.2" y1="84.6" x2="668.5" y2="85.4"/>
		<line fill-rule="evenodd" clip-rule="evenodd" fill="#CFCFCF" x1="664.2" y1="91.2" x2="663.4" y2="90.8"/>
		<line fill-rule="evenodd" clip-rule="evenodd" fill="#CFCFCF" x1="697.6" y1="121" x2="697.6" y2="120.3"/>
		<path fill-rule="evenodd" clip-rule="evenodd" fill="#CFCFCF" d="M696.5,122.1c0.5-0.7,0.7-1.3,1.1-1.8"/>
		<line fill-rule="evenodd" clip-rule="evenodd" fill="#CFCFCF" x1="697.6" y1="120.3" x2="696.9" y2="120.3"/>
		<line fill-rule="evenodd" clip-rule="evenodd" fill="#CFCFCF" x1="712.9" y1="137" x2="712.9" y2="137.7"/>
		<path fill-rule="evenodd" clip-rule="evenodd" fill="#CFCFCF" d="M712.9,137.7c0.3-0.5,0.3-1.2,0.4-1.8"/>
		<line fill-rule="evenodd" clip-rule="evenodd" fill="#CFCFCF" x1="712.9" y1="137.7" x2="713.6" y2="137.7"/>
		<line fill-rule="evenodd" clip-rule="evenodd" fill="#CFCFCF" x1="928.1" y1="243.9" x2="927.4" y2="243.5"/>
		<line fill-rule="evenodd" clip-rule="evenodd" fill="#CFCFCF" x1="927.4" y1="243.5" x2="926.7" y2="243.9"/>
		<line fill-rule="evenodd" clip-rule="evenodd" fill="#CFCFCF" x1="663.4" y1="357.3" x2="663.4" y2="356.6"/>
		<line fill-rule="evenodd" clip-rule="evenodd" fill="#CFCFCF" x1="661.6" y1="357.7" x2="662" y2="357.3"/>
		<line fill-rule="evenodd" clip-rule="evenodd" fill="#CFCFCF" x1="662" y1="357.3" x2="661.6" y2="357.7"/>
		<line fill-rule="evenodd" clip-rule="evenodd" fill="#CFCFCF" x1="663.4" y1="356.6" x2="662.7" y2="356.6"/>
		<line fill-rule="evenodd" clip-rule="evenodd" fill="#CFCFCF" x1="895" y1="277" x2="894.7" y2="276.6"/>
		<line fill-rule="evenodd" clip-rule="evenodd" fill="#CFCFCF" x1="907" y1="289.7" x2="907.4" y2="290.4"/>
		<line fill-rule="evenodd" clip-rule="evenodd" fill="#CFCFCF" x1="907.4" y1="290.4" x2="907.8" y2="291.1"/>
		<line fill-rule="evenodd" clip-rule="evenodd" fill="#CFCFCF" x1="907.8" y1="299.1" x2="907.8" y2="298.4"/>
		<line fill-rule="evenodd" clip-rule="evenodd" fill="#CFCFCF" x1="783.4" y1="333.3" x2="783.8" y2="332.6"/>
		<path fill-rule="evenodd" clip-rule="evenodd" fill="#CFCFCF" d="M798,316.6c0.5-0.5,1.2-1.2,1.8-1.8"/>
		<path fill-rule="evenodd" clip-rule="evenodd" fill="#CFCFCF" d="M798.7,316.6c2,2.9,0.2,0,1.5-1.5"/>
		<line fill-rule="evenodd" clip-rule="evenodd" fill="#CFCFCF" x1="800.1" y1="315.1" x2="799.8" y2="314.8"/>
		<line fill-rule="evenodd" clip-rule="evenodd" fill="#CFCFCF" x1="798" y1="316.6" x2="798.7" y2="316.6"/>
		<path fill-rule="evenodd" clip-rule="evenodd" fill="#CFCFCF" d="M907.4,239.9"/>
		<line fill-rule="evenodd" clip-rule="evenodd" fill="#CFCFCF" x1="899" y1="264.2" x2="898.3" y2="263.9"/>
		<line fill-rule="evenodd" clip-rule="evenodd" fill="#CFCFCF" x1="898.3" y1="263.9" x2="897.6" y2="264.2"/>
		<path fill-rule="evenodd" clip-rule="evenodd" fill="#CFCFCF" d="M907.4,239.9"/>
		<line fill-rule="evenodd" clip-rule="evenodd" fill="#CFCFCF" x1="848.1" y1="424.9" x2="847.4" y2="424.9"/>
		<path fill-rule="evenodd" clip-rule="evenodd" fill="#CFCFCF" d="M851,426.8c-1-1.2-2.2-1.4-3.6-1.8"/>
		<line fill-rule="evenodd" clip-rule="evenodd" fill="#CFCFCF" x1="847.4" y1="424.9" x2="847.4" y2="425.7"/>
		<line fill-rule="evenodd" clip-rule="evenodd" fill="#CFCFCF" x1="722.3" y1="492.6" x2="721.6" y2="492.2"/>
		<line fill-rule="evenodd" clip-rule="evenodd" fill="#CFCFCF" x1="707.8" y1="310.8" x2="707.4" y2="310.4"/>
		<path fill-rule="evenodd" clip-rule="evenodd" fill="#CFCFCF" d="M707.4,311.9c0-0.5,0-1,0-1.5"/>
		<line fill-rule="evenodd" clip-rule="evenodd" fill="#CFCFCF" x1="707.4" y1="310.4" x2="707.1" y2="310.8"/>
		<path fill-rule="evenodd" clip-rule="evenodd" fill="#CFCFCF" d="M947.8,149.4c-3.1-3.2-1.2-8.3-2.2-14.5
			c-0.2-1.4-1.5-3.3-1.5-4.4c0.1-4.4,3.1-9.4,2.9-13.8c0-1.4-0.6-3.2-1.5-4.4c0.2-2,2.6-2.4,3.6-3.6c1.2-1.4,1.5-2.9,2.9-4.4
			c-2.4-5.4-3-12.7-0.7-18.9c1.8,0.1,2.3,1.4,2.9-0.7c3.7,8.7,6.2,18.5,9.5,28.4c0.5,1.5,0.9,3.5,1.5,5.1c0.4,1.2,1.8,2.5,2.2,3.6
			c0.5,1.6,0,3.6,0.7,5.1c2.2,4.4,7.9,5.9,6.5,11.6c-4.3,0.3-5.2,4-7.3,6.5C960.4,146,954.5,148.1,947.8,149.4z"/>
		<path fill-rule="evenodd" clip-rule="evenodd" fill="#CFCFCF" d="M946.3,150.1c-5-0.2-8.1,1.6-12.4,2.2c-1.4-7.4-2-19.2-7.3-20.4
			c1.1-3.8-2.4-6.9-2.9-10.2c-0.2-1.3,0.7-3.2,0.7-4.4c0-1-0.5-3.5-0.7-4.4c-0.4-1.3-1.7-2.4-2.2-3.6c-0.3-0.8,0.2-2,0-2.9
			c-0.4-2.1-1.7-3.9-1.5-5.8c9.4-2.7,18.7-5.5,29.1-7.3c1,2.2-0.3,2.6,0,5.8c0.6,2.3,1.5,2.5,1.5,4.4c-0.1,3.6-4.6,5.3-5.8,8
			c2.8,6.4-1.4,13-1.5,18.9c0,2.7,2.1,7.6,2.2,11.6C945.6,144.9,944.3,147.2,946.3,150.1z"/>
		<path fill-rule="evenodd" clip-rule="evenodd" fill="#CFCFCF" d="M938.3,196.4c0.4,1.6-0.7,3.8-2.4,3.8c-3.1,2.7-3.3-7-3.5-4.4
			c-7.7-1.8-14.1-4.8-21.1-7.3c-1.9-1.1-1.5-4.9-2.9-6.5c-0.9-1-2-0.5-3.6-1.5c-1-0.6-1.7-2.1-2.2-2.2c-1.6-0.3-6,1.4-9.5,2.2
			c-3,0.7-6.7,1.6-9.5,2.2c-17.5,3.9-40.4,8.8-58.2,10.9c0.9-1.1-0.9-2.4-0.7-3.6c0.3-2.1,1.9-2.3,3.6-4.4c1.2-1.4,2-3.2,2.9-4.4
			c1.1-1.4,2.7-2.3,3.6-3.6c0.5-0.6,0.2-0.9,0.7-1.5c0.3-0.4,1.5-1.8,2.2-2.9c0.4-3-2.1-3.2-1.5-6.5c-1.3-0.8-3.3-1.1-3.6-2.9
			c-0.7-3,4-3.1,6.5-4.4c2.2-1.1,8.3-3.7,13.8-2.9c1.7,0.2,2.8,1.4,4.4,1.5c3.3-1.1,5.8-2.9,10.9-2.2c2.6-2,4.7-4.5,6.5-7.3
			c1.1-1.1,2.8-1.5,4.4-2.2c0.3-3.2-0.5-5.3-1.5-7.3c-0.2-2.6,2.2-2.7,2.2-5.1c-3,2-1.9-3.5-4.4,0c-1.5-3.3,4.7-6.6,6.5-9.5
			c-0.7-2.4,0.6-3.7,1.5-5.1c0.7-1.1,1.3-2.2,2.2-3.6c2.6-4.5,7-9,12.4-10.2c6.3-1.4,14.8-2.4,20.4-5.1c1.7,1,0.3,2.2,0.7,3.6
			c0.3,0.9,1.2,1.2,1.5,2.2c0.2,0.9-0.3,2,0,2.9c0.9,2.5,2.9,4,2.9,8c0,1.7-1,2.7-0.7,4.4c0.6,3.8,3.9,7.6,2.9,12.4
			c1.9,1.9,1-1.9,2.9,0c2,4.4,2.7,10.1,3.6,16.7c0.1,0.8,1.6,1.3,1.5,2.2c-0.8,3.6-1.3,9.8-0.7,15.3c0.1,1.4,1.1,2.2,1.5,3.6
			c0.9,3.9,0.9,9.3,2.2,13.8c1.3,4.9,1.8,4.6-1.5,8L938.3,196.4z"/>
		<path fill-rule="evenodd" clip-rule="evenodd" fill="#CFCFCF" d="M957.8,190.8c-0.1-0.7,2.4-1.6,2.4-1.6c2.4,0.4,2.3-1.9,5.8-1.3
			c-1.9,1-2.5,3.9-5.1,4.2C960.8,192.1,957.8,191.6,957.8,190.8z"/>
		<path fill-rule="evenodd" clip-rule="evenodd" fill="#CFCFCF" d="M958.3,193l-0.5,0.7c0.2,2.3-2.2,1.2-4.2,2.2
			c-0.4,0.2-0.4,1.3-0.7,1.5c-1,0.6-2.6,0.2-3.6,0.7c-0.9,0.5-1.4,1.8-2.2,2.2c-2,1.1-4.2,1.8-6.5,2.9c-2,0.9-3.7,3.4-6.5,2.2
			c-0.2-4.8,5.4-3.8,5.8-8c3.6-0.3,6.5-1.2,8-3.6c3.5,0.1,6.5-3.1,8.5-4.4c-0.2,1.3-3.7,3.9-0.4,3.3L958.3,193z"/>
		<path fill-rule="evenodd" clip-rule="evenodd" fill="#CFCFCF" d="M989.2,165.4c-0.1,1.9-1.1,2.8-2.9,2.9c0.5-2.2-1.3-2.1-0.7-4.4
			c-2.7,1.4-4.1,4.2-5.8,6.5c-2.6-0.1-2.9-2.4-2.9-5.1c-0.7,0.5-1.1,1.3-1.5,2.2c-2.2-1.2-3.1-3.7-4.4-5.8
			c-13.6,1.2-23.2,6.4-37.1,7.3c0.4-6.5,0.8-8.7,0.7-16c9-1.8,21.9-4.5,30.5-6.5c2.6-0.6,5.7-3.3,6.5-6.5c0.8,0.1,1.3-0.2,1.5-0.7
			c2.2,1.6,2.6,6.6,6.5,4.4c-2.7,1.9-4.3,4.9-5.8,8c0.1,0.6,0.7,0.7,0.7,1.5c1.2,2.2,2.6,0.8,5.1,0.7c1,1.7,3.6,1.7,2.9,5.1
			c3.3,0.6,3.2,4.6,6.5,5.1"/>
		<path fill-rule="evenodd" clip-rule="evenodd" fill="#CFCFCF" d="M988.8,164.6c2.5,0.5,6.8-1.3,8.7-3.8l-1.2-1l-1.9,1.5l-0.2,1
			c0,0-2.9,1.2-3.9,0.7c-1-0.5-1.1,0.8-1.1,0.8L988.8,164.6"/>
		<path fill-rule="evenodd" clip-rule="evenodd" fill="#CFCFCF" d="M988.5,171.2c0.1,1.6-0.6,2.3-2.2,2.2
			C987.1,172.7,986.5,170.7,988.5,171.2z"/>
		<path fill-rule="evenodd" clip-rule="evenodd" fill="#CFCFCF" d="M970.3,162.4c1.4,2.5,1.7,4.2,0.7,6.5c1.3,1.7,1.8,4.1,1.5,7.3
			c-1.6,0.8-3.2,1.7-4.4,2.9c-0.6-3.5-2.5-10.1-3.6-15.3C966.2,163.2,968.1,162.6,970.3,162.4z"/>
		<path fill-rule="evenodd" clip-rule="evenodd" fill="#CFCFCF" d="M915,263.5c-0.6-10.7-7.7-21.3-6.5-32c2.1,0.6,1.9-1,3.6-0.7
			c0.4,2.1-1.4,3.2-1.5,5.1c-0.1,3.4,2.7,6.4,5.1,8c0.4,2.8,1,4.2,2.9,6.5c1.8,2.2,1.9,3.8,5.8,3.6c-0.2,1.7-1.1,2.7-0.7,5.1
			c0.1,1.2,3.5-1.2,2.9,2.2C922.4,261.7,919.4,263.3,915,263.5z"/>
		<path fill-rule="evenodd" clip-rule="evenodd" fill="#CFCFCF" d="M935.4,170.4c9.4-2,18.5-4.3,27.6-6.5c1.2,5.1,3.4,9.2,3.6,15.3
			c-4.4-0.6-6.2,5.2-9.5,1.5c-0.1,2,1.2,1.5,0,2.9c-3.6,0.7-6.8,1-9.5,2.9c-0.8,0.5-0.8,1.6-1.5,2.2c-0.4,0.4-1.7-0.3-2.2,0
			c-0.6,0.5-0.2,1.6-0.7,2.2c-0.5,0.5-1.7,0.3-2.2,0.7c-0.9,0.9-1.5,2.6-2.9,2.9c-0.8,0.1-1.3-0.2-1.5-0.7c-0.6-2.3,2.4-1,2.2-2.9
			C937.8,184,935.7,178.1,935.4,170.4z"/>
		<path fill-rule="evenodd" clip-rule="evenodd" fill="#CFCFCF" d="M916.5,190.8c-2.1,3.2-2.3,8.3-5.1,10.9
			c-0.3,2.3,1.5,1.2,1.5,3.6c0,1-1.6,2.3-1.5,2.9c0.4,2.1,1.3,3,2.9,4.4c0.5,0.4,0.3,1,0.7,1.5c0.7,0.7,1.3,0.9,2.2,1.5
			c1.3,0.8,2.8,3.2,5.1,3.6c-0.3,2.4-2.2,3.2-3.6,4.4c-1.3,1.4-1.6,3.7-2.9,5.1c-1.2,0-1.9,0.5-2.2,1.5c-1.5,0-2.9,0-4.4,0
			c-1.4,1-2.2,2.7-2.9,4.4c-27.6,5.8-55.8,11.1-83.6,16.7c-2.5-9.7-5.1-26.3-7.3-39.3c-0.8-4.9-2.8-10.7-2.2-13.1
			c0.3-1.1,1-1.9,2.2-2.9c0.6-0.5,1.5-0.2,2.2-0.7c1.4-1,4-4.7,6.5-5.1c0.2,1.7,1.1,2.7,0.7,5.1c16.6-2.5,35.8-6.4,53.8-10.2
			c1.7-0.4,2.8-1.1,4.4-1.5c3-0.6,6.8-0.7,10.2-1.5c3.6-0.8,6.4-2.6,8.7-2.2c2.1,0.3,3,3.3,5.1,2.2C909,186.1,910,191.2,916.5,190.8
			z"/>
		<path fill-rule="evenodd" clip-rule="evenodd" fill="#CFCFCF" d="M926.7,243.9c0-0.2,0-0.5,0-0.7c-1.5,0.4-4.8-0.9-5.1,0.7
			c-3.3-3-12.6-5-7.3-13.1c2.1-0.2,2-1,4.4-2.2c-0.6-3.3,1.7-3.6,2.2-5.8c1.2-0.2,1.3,0.7,2.2,0.7c-1.6-1.5,0.1-2.4,0.7-3.6
			c0.1-1.9-1.9-0.8-2.9-2.2c-1.7-2.3,0.9-1.3-1.5-2.2c-0.3-0.1-1.8-0.4-2.2-0.7c-0.7-0.5-0.2-1.5-0.7-2.2c-1-1.4-3.1-1.1-3.6-2.9
			c0.1-3.1,2.8-5.1,0-7.3c0.2-2.2,2.2-3.4,2.9-5.1c0.8-1.9-0.2-4,1.5-5.1c0.8,0.1,0.4,0.7,0,0.7c2.4,0.4,2.7-0.2,5.8,0.7
			c-0.1,0,2,0.6,2.2,0.7c0.2,0.1-0.2,1.4,0,1.5c0.4,0.1,1.3-0.9,2.2-0.7c0.7,0.1,3.6,1.9,5.1,2.2c0.7,6.5-4.5,7.2-2.9,14.5
			c2.3,0.4,2.6-1.3,5.1-0.7c1.9,2.6,0.1,6.5,0,9.5c-0.1,2.9,1.4,5.9-0.7,7.3c0.9,0.3,1.8,0.5,0.7,2.9c-0.2,0.3-1.7,1-2.2,2.2
			c-1,2.2,0,5.1-2.9,5.8c0.6,3,0.1,2.5,0,5.8c-0.6-0.1-0.7-0.7-1.5-0.7"/>
		<path fill-rule="evenodd" clip-rule="evenodd" fill="#CFCFCF" d="M888.1,258.4C889.8,256.1,891.1,261,888.1,258.4L888.1,258.4z"/>
		<path fill-rule="evenodd" clip-rule="evenodd" fill="#CFCFCF" d="M897.6,264.2c-0.7,0-0.6-0.9-0.7-1.5c-2.6,6.1,5.8,7.3,8,10.9
			c-2,0.5-9-0.2-9.5-3.6c-0.9,0.1-0.6,1.3-0.7,2.2c-1.8-0.6-2.3-2.5-3.6-3.6c-1.9-0.2-2.4,1-2.2,2.9c-3.8-3.6,2.6-8.2,2.2-13.1
			c-0.8-2.6-2.9-0.4-4.4-0.7c-1.5-0.3-2.1-1.7-3.6-2.2c-1.2-0.4-2.6,1.1-3.6,0c0.5-3.7-1.5-4.8-5.1-4.4c-1-2.1-3-2.5-3.2-5.5
			c-0.8-0.6-3.2-1-4.4-1.1c-1.2-0.1-2.9-0.7-3.4,0.2c-0.5,1-2.3,0.7-2.9,1.5c-0.6,0.7-1.8,3.3-2.9,3c-1.1-0.2-3-1.6-3.5-1.5
			c-0.5,0.1-0.7,0.4-1.2,1.5c-0.5,1.1-1.6,2.9-2.9,3c-1.3,0.1-2.1,0.5-2.4,1.3c-0.4,0.8-1,2.4-1.8,3.2c-0.8,0.7-2.2,1.1-2.8,2.8
			l-1.9-11.1l32.6-6.1c4.5-0.9,11.9-2.5,17.5-3.6c3.8-0.8,10.5-3,16-3.6c-0.6,2.1,1,1.9,0.7,3.6l0.1,0.5c2.5,8.2,4.3,17.9,7.2,25.7
			c3.3-0.8,9-3.6,11.6-0.7c-1.4,2.7-3,5.2-3.6,8.7c-3.3,0.4-4.5,2.8-8,2.9c0.4-1.1,1.1-1.8,1.5-2.9c-0.2-0.7-3.2-1.9-2.9-0.7
			c-2.2,0.3,0.7-1.8,0.7-2.2c0-0.8-2.7-1.6-1.5-3.6c-1.3-0.4-0.9,1.9-1.5,2.2c-0.3,0.2-1.9-2.9-2.2,0.7c-1.3-0.7-2.1-1.8-3.6-2.2
			c-0.5-2.2,1.3-2.1,0.7-4.4c2.3,0.8,1.9,0.3,3.6-0.7c0.1-1.6-2.6-0.3-3.6-0.7c0.1-2.2-2.8-4.5,0-5.1c-0.1-1.3-2.5-0.4-2.9-1.5
			c-0.5-1.1,1.6-2.5,0.7-4.4c-0.3-0.7-1.5-0.9-1.5,0c-0.5-4.5-0.6-5.8,5.1-7.3c-2.3-1-2.7-1.5-1.3-3.6l-0.1-0.7
			c-1.1-1.2-2.8,0.2-4.4,0.7c-0.3,1.8,1.3,1.6,0.7,3.6c-1.2,0.3-1.4-0.6-1.5-1.5c-2.2,1.4-1.2,3.1-3.6,2.9c-0.1,2,1.2,1.5,0,2.9
			c-0.6-0.4-1.2-0.8-2.2-0.7c0.8,0.9,0.6,1.5-0.7,1.5c-0.3,2.3,1.8,2,2.9,2.9c-1.3,4.3,1.1,8.3,1.5,13.1"/>
		<path fill-rule="evenodd" clip-rule="evenodd" fill="#CFCFCF" d="M843.8,259.2c2.9-0.7,3.6-3.7,5.1-5.8c2.3,0.1,4.5-1,5.1-4.4
			c1.4,0.3,1.8,1.6,3.6,1.5c2.1-0.1,2.4-2.6,3.6-3.6c1-0.9,3.2,0,2.9-2.2c1.4,1.3,4.4,0.5,5.8,1.5c0.2,0.2-0.2,1.2,0,1.5
			c0.2,0.2,1.3-0.2,1.5,0c0.4,0.7,0.4,1.7,0.7,2.2c0.9,1.4,1.3,2.3,0.7,5.1c-4.1-0.2-6.9-5-10.2-3.6c-1.8,2.4-0.8,5.6-1.5,8
			c-0.1,0.4-1.4,1.2-1.5,1.5c-0.2,0.6,0.3,1.7,0,2.2c-0.8,1.2-4.6,0.4-3.6,4.4c-7.1-1-3.5,8.6-7.3,10.9c-3.2,0.4-3.8-4.4-6.5-2.2
			c-1.6,1.6-0.3,3.3-0.7,5.1c-0.4,1.6-2.3,3.5-2.9,5.1c-0.4,1.1,0.4,2.6,0,3.6c-0.9,2.7-3.7,4.3-4.4,8c-0.4,2,1,4.4,0,6.5
			c-4-0.1-4.6,3.1-8.7,2.9c-1,0.5-1.4,1.6-1.5,2.9c-2.7-0.3-5.5,3.2-8,0.7c-1.6,1-2.4,2.9-4.4,3.6c-3.5-1.2-6.9-2.3-7.3-6.5
			c-5.2,0-7-3.1-10.2-7.3c-1.6-2.1-4.1-4.9-4.4-5.8c-0.5-1.8,1.2-4.2,0-5.8c5,1.1,2.9-4.9,6.5-5.1c-1.6-2.7-0.6-8.1,0.7-10.2
			c2.3-0.3,2.1,1.8,2.9,2.9c3.4-2.3,0.9-6.4,2.2-9.5c0.7-1.7,4.6-1.4,2.9-4.4c1.2,0.1,2.8-0.4,2.9,0.7c1.8-0.9,2.9-2.7,4.4-4.4
			c1-1.2,3.1-2.8,3.6-4.4c0.4-1,0.3-2.9,0.5-4c0.2-1.6-0.2-5.1,0.2-6.8c2.5-9.2-0.6-12.6,0.6-13.6c1,4.4,2.8,18,3.8,21.5
			c6.7-0.6,12.1-2.4,18.9-2.9c0.9,3.9,1.4,8.3,2.2,12.4c0.6-0.3,1.3-0.6,1.5-1.5V259.2z"/>
		<path fill-rule="evenodd" clip-rule="evenodd" fill="#CFCFCF" d="M670.7,347.1c2.5-6.6-3.4-12.9,2.9-15.3
			c3.5,0.3,6.6,4.3,10.2,2.2c0.7-3.6-2.4-3.4-1.5-7.3c2.5-0.4,3.9-1.9,6.5-2.2c1.4-2.6-0.9-2.6-0.7-5.8c0.8-1.4,5.3-2.9,3.6-4.4
			c1.3-0.8,3.5-0.7,4.4,0.7c2.7-0.9,1-1.9,3.6-2.9c2.8,0.4,5.4,0.9,6.5,2.9c2.1-1,2.1-4.2,4.4-5.1c1.8,0.8,4.1,1.2,5.1,2.9
			c1.8-1.8,1.7-5.6,3.6-7.3c2.2-2.3,1.2,2.5,4.4,1.5c0.9,2,3.8,0,5.1,0c0.4-1.5-0.9-4.8,0.7-5.1c-0.1-2.3,2.9-1.4,3.6-2.9
			c-0.5-3.9,2.5-4.3,3.6-6.5c0.3-1.8-1.3-1.6-0.7-3.6c1.1-2,3.4,0.8,3.6,0.7c2.5-0.4,3-4.1,7.3-3.6c0.2-3.1-1.1-4.7-1.5-7.3
			c0.8-1.5,2.3,0.1,3.6,0c1.5-0.1,2.3-1.2,3.6-0.7c3.1,1,3.7,4.8,5.8,6.5c4.1-0.4,6.9,0.3,8.7,2.2c2.3,0.6,2.2-1.1,3.6-1.5
			c3.1-0.2,3,2.4,5.8,0.7c2.4-0.3,2.9-2.4,4.4-3.6c1.9,2.5,4.4,4.3,7.3,5.8c0,2.3,1.7,4.7,0,6.5c4.2,4.5,6.6,10.8,12.4,13.8
			c1.3-0.2,1.5,0.7,0.7,0.7c-2.1,5.6-8.7,7.1-11.6,13.1c-1.2,2.4-1.3,2.9-3.6,5.1c-0.9,0.9-2,2.8-2.2,2.9c-0.5,0.4-2.6,0.2-3.6,0.7
			c-0.3,0.2-0.5,1.3-0.7,1.5c-0.4,0.2-1.1-0.2-1.5,0c-1.5,0.8-3.1,2.6-4.4,2.9c-2,0.6-7.2,0.2-10.9,0.7c-1.5,0.2-6.4,1.3-8.7,1.5
			c-3,0.2-5.8-0.3-8.7,0c-3.9,0.4-8.9,1.8-14.5,2.2c-2.9,0.2-5.8-0.2-8.7,0c-10.9,0.8-21.9,4.2-31.3,2.2c-0.6,2.5,1.1,2.8,0.7,5.1
			c-7.3,0.2-13.5,1.6-21.1,1.5"/>
		<path fill-rule="evenodd" clip-rule="evenodd" fill="#CFCFCF" d="M817.6,228.6c-1.1,0.9-2.1,1.8-2.9,2.9c4,2.1,1.3,8.8,0.7,16
			c-0.2,2.3,0.3,4.7,0,5.8c-1.4,4.4-5.6,6-6.5,8.7c-1.6-1.2-3.9,0.2-4.4-0.7c-1.2,0.2,0.5,1.9-0.7,3.6c-0.2,0.3-2.1,0.5-2.2,0.7
			c-0.7,1.4,1,4.3-1.5,4.4c-0.4,2.3,2.5,1.9,0.7,3.6c-2,0.5-1.5-1.4-2.9-1.5c-1.9,1.3-3.6,3.2-3.6,6.5c0,1.4,1.1,2.4,0.7,3.6
			c-0.4,1.4-0.9,1.1-1.5,2.2c-0.4,0.8-0.1,2.3-0.7,2.9c-0.6,0.7-1.7-1-2.2-0.7c-0.1,0,1.3,1.5,0,1.5c-3.4-0.2-2.5-2.7-6.5-3.6
			c-0.3-1.4-1.6-1.8-1.5-3.6c-2.8,0.6-4.4,2.4-5.8,4.4c-2.6,0.4-3.5-0.8-5.1-1.5c-1.9,0.3-2.2,2.2-4.4,2.2c-1.9-2.2-4.3-3.7-8-2.2
			c-1-2.1-3.5-2.8-3.6-5.8c-3.9-1.4-7.2-0.6-10.2-1.5c-1.4-21.1-4.9-40.1-6.5-61.1c6.2-0.4,11.7-1.2,16.7-2.2c1.8-0.4,4-1.5,5.8-1.5
			c0.1,0-0.1,1.4,0,1.5c-0.1-0.1,2.2-0.9,2.9-0.7c2.4,0.5,5,2.4,7.3,2.9c-0.3,1-1.3,1.1-1.5,2.2c2.3-0.3,5.2-0.1,3.6-0.7
			c2-1.8,3.6,0.9,5.8,0.7c3.3-0.2,5.5-3,8-4.4c4,1.7,6.4-1,8.7-3.6c1.1-1.3,1.7-2.6,2.9-3.6c2-1.8,4.7-2.5,6.5-3.6
			c2.3-1.4,3.8-3.5,6.5-3.6C813.6,209.4,815.4,219.2,817.6,228.6z"/>
		<path fill-rule="evenodd" clip-rule="evenodd" fill="#CFCFCF" d="M688.8,136.9l2.4-1.9c0,0.8-1.9,3.6-0.2,3.6
			c-0.3,0.9-2.4,1.6-2.9,2.2c-0.5,1.9-2.2,4.3-2.8,4.2c-0.6-0.5-0.7-1.3-0.5-2c0.2-0.7,0.5-2.4,1.1-2.7L688.8,136.9z"/>
		<path fill-rule="evenodd" clip-rule="evenodd" fill="#CFCFCF" d="M770.5,193.4c0.9,0.8,2-3.9,2.2-5.2c-0.4-0.9-1.4,0-2,0.5
			C770.1,189.3,769.8,192.8,770.5,193.4z"/>
		<path fill-rule="evenodd" clip-rule="evenodd" fill="#CFCFCF" d="M773.8,190.9c0.9-1.4,2.6,1,3.8,2.1c-0.5,2.7-8,5.6-6.4,2.8
			C772.1,194.1,772.9,192.4,773.8,190.9z"/>
		<path fill-rule="evenodd" clip-rule="evenodd" fill="#CFCFCF" d="M662.6,93l1.6-1.8c1.6-1.8,3.6-3.2,4.4-5.8v-1.5
			c-4.5,1.1-8.1,3.1-8.7,8c2.3,0.8,2.3-0.2,2.9-1.5c0,0.2,0,0.5,0,0.7L662.6,93z"/>
		<path fill-rule="evenodd" clip-rule="evenodd" fill="#CFCFCF" d="M696.9,120.3c-0.1-0.6-0.7-0.7-0.7-1.5c-4.2-0.8-3.2,3.6-6.5,3.6
			c0-1.2,0-2.4,0-3.6c-2.3,1.1-2.2,4.3-3.6,6.5c-1.9,3-3.9,8.8-5.8,13.1c-2.5-0.4-1.1-3.5-0.7-5.1c0.5-1.2-3.4-1.2-2.9,0
			c-0.8-4.4,1.8-10.7-5.8-10.2c0.2-1.7-0.1-2.8-0.7-3.6c-2.1,1-4.4-1.3-6.5-1.5c-1.9-0.1-4.3,1-7.3,0c-0.4-0.1-1.2-1.4-1.5-1.5
			c-4.8-1.5-12.5-2.1-18.9-3.6c-0.3-2.6-1.7-4.1-4.4-4.4c0.6-2.1,3.5-1.8,5.1-2.9c1.8-1.2,2.4-3.4,4.4-4.4c6.6,1,7.7-3.5,12.4-4.4
			c1-1.9,2.5-3.4,3.6-5.1c4.5,0.4,4.2,5.5,5.1,9.5c2.3,0.4,0.3-3.6,2.9-2.9c0.1,0.6-0.3,0.7-0.7,0.7c2.2,0.9,2.9-2,5.1-2.2
			c5.1-0.4,8.9,5,10.9,8.7c5.6-0.6,7.7-0.5,12.4,0.7c2.3,0.4,2.1-2.1,2.9-2.9c0.5-0.5,2-0.6,2.9-1.5c1.7-1.5,1.2-1.9,5.1-2.9
			c2-0.5,4.2,0.1,7.3-0.7c2.8-0.7,4.9-3.6,8-2.9c-0.2,2.6,0.1,4.7,0.7,6.5c3.6,0.9,6.9-1.9,8,0.7c1.5-0.2,1.9-1.5,2.9-2.2
			c2.1,0.5,3.1,2.3,2.9,5.1c1.6,2.3,5,2.8,5.8,5.8c-4-0.2-8.7,0.5-11.6-0.7c-1.9,0.1-1.4,2.4-1.5,4.4c-2.1,0-2.7-1.7-3.6-2.9
			c-3.4-0.2-6.7-1.9-9.5-0.7c-1.8,0.6-2.2,2.7-3.6,3.6c-3.7,0.4-6.7-0.3-8.7,1.5c-1.4,1.2-0.8,3.1-2.9,4.4"/>
		<path fill-rule="evenodd" clip-rule="evenodd" fill="#CFCFCF" d="M713.6,137.7c0,1.7,0,3.4,0,5.1c0.4,2.1,1-1,2.2-0.7
			c0,0,0.2,1.2,0.7,0.7c1-0.8,2-2.7,2.2-4.4c0.2-1.7-1.3-4.2-0.7-5.8c1-2.8,2.4-4.3,5.8-4.4c1-3.2-2.8-1.5-2.2-4.4
			c0.3-3.1,3-3.8,4.4-5.8c1.8-0.6,2.3,1.7,4.4,2.2c2.8,0.7,6.7-0.6,7.3,2.9c6.5,0.6,11.5,2.5,14.5,6.5c0.1,2.1-2.2,1.7-2.2,3.6
			c0.6,2.1,2.7,2.7,3.6,4.4c0.2,4.5,2.5,10.9-2.2,13.1c0.6,2.7-0.9,3.5-0.7,5.8c-1.5,0.7-2.9,1.5-4.4,2.2c-0.7,6,0.2,8.7,5.1,9.5
			c1.7-3.1,5.2-4.5,5.1-9.5c3.4-0.5,4-3.8,8-3.6c6.4,5,5.3,17.5,10.9,23.3c-1.4,2-0.4,6.4-0.7,9.5c-2.4,0.9-0.6-2.4-2.9-1.5
			c-2.2,1.4-3.4,3.9-2.9,8c-1.4,0.7-2.5,1.8-3.6,2.9c1.2,7.1-3.4,8.3-3.6,13.8c-7.2,0.5-14.4,3.3-21.8,3.6c-2.1,0.1-4.4-0.7-6.5-0.7
			c-6.3,0.1-13.7,2.1-20.4,2.9c-2.5,0.3-5.4-0.2-8,0.7c-2.4,0.5-1.1-1.4,0-1.5c1.2-2,1.6-3.8,2.9-7.3c1.3-3.6,3.4-9.5,2.9-16
			c-0.3-4.5-2.8-8-2.2-11.6c-2.8-1-2.9-2.8-4.4-5.8c-0.4-0.7-1.3-1.2-1.5-2.2c-0.3-1.8,1.3-2.4,1.5-4.4c0.2-2.3-0.9-4.1-2.2-5.8
			c1.1-3.5,4.2-6.2,3.6-12.4c-0.1-1.2-0.8-2.3-0.7-2.9c0.4-2.4,3.2-3.4,2.2-5.8c2.5-1.2,4.7-2.6,5.8-5.1"/>
		<path fill-rule="evenodd" clip-rule="evenodd" fill="#CFCFCF" d="M644.9,80.4c0,1.3,6.9-2,8-2.2c1.1-0.3,4.4-3.6,4.4-4.8
			c0-1.1-3.6,2.8-4.7,3.7C651.4,77.8,644.9,79,644.9,80.4z"/>
		<path fill-rule="evenodd" clip-rule="evenodd" fill="#CFCFCF" d="M707.1,310.8c-1,0.1-1.1,1.5-2.2,1.5c-1.5,0-1.8-1.3-2.9-1.5
			c-1.2-0.2-4.9,0.6-5.1,0.7c-0.2,0.1,0.2,2.2,0,2.2c-0.9,0.1-0.3-1.1-0.7-1.5c-1.1-0.8-4.9,2.1-6.5,0.7c-0.4-3.3,1.3-4.5,0.7-8
			c1.5-0.4,1.4-2.2,2.9-0.7c-1.2-3.3,3.2-6.9,3.6-10.9c0.6,0.1,0.7,0.7,1.5,0.7c-0.9-1.2-0.8-4.4-1.5-6.5c-0.1-0.3-1.7-2-1.5-2.2
			c1.4-1.1-1.1,0.2-1.5-1.5c1.1-1.6-0.1-5.4,2.2-5.8c-2.6-18-3.5-37.7-5.8-56c-2.1,0.6,3.4,0.5,3.6,0.7c0,0-0.8,1.5-0.7,1.5
			c-0.2,0,2.7-1.2,4.4-2.2c1.3-0.8,2.1-2.1,3.6-2.9c0.9-0.5,1.4,0.8,1.5,0.7c0.8-0.2,0.4-0.8,0-0.7c5.1-1.4,11.9-1.3,18.2-2.2
			c3.6-0.5,10.6-1.5,16-2.2c0.8,0.9,0,2.3,0,2.2c0.3,0.9,1.3,1.2,1.5,2.2c0.3,1.4-0.1,3,0,4.4c0.5,5.9,2.1,12.7,2.9,19.6
			c0.6,5.7,0.8,11.7,1.5,17.5c0.6,5.1,2,10.3,2.2,14.5c0.1,2.4-1.1,3.5,0,5.8c-3.6-2.5,2.4,3.7-1.5,1.5c0.7,2.4,1.6,0.1,2.9,1.5
			c0.3,1.2-2.7,2.4-2.9,0.7c-1-2,0.1,1.9-0.7,2.2c-0.5,0.2-1.8-0.5-1.5-0.7c-0.8,0.7,0.8,1.9-0.7,2.2c-0.9,0.1-1-1.3-1.5-1.5
			c-1-0.3-2.9,2.5-2.9,0c-2.6,1.4-0.2,3.3-0.7,6.5c-4,0.2-2.1,8.2-6.5,5.8c-0.6,2.3-0.5,5.4-1.5,7.3c-2.1,1.3-3.4-1.5-2.9-1.5
			c-0.7,0-0.8,2-2.2,1.5c0-2.2-1.3-3.1-2.9-3.6c-2.5-0.9-0.5,2.7,0,1.5c-0.4,0.9-1.7,0.8-2.2,1.5c-0.8,1-0.5,3.1-0.7,3.6
			c-0.2,0.3-2.4,0.3-0.7,0.7c-0.6,1.7-3.4-0.4-3.6-1.5c-1.9-0.8-2.5,3.1-3.6,0.7c-1.1,0.3,0.6,1.3-0.7,1.5"/>
		<path fill-rule="evenodd" clip-rule="evenodd" fill="#CFCFCF" d="M688.2,323.9c-3.5,0.1-5.5,1.8-7.3,3.6c-0.1,2.7,3.4,4.3,1.5,6.5
			c-4.9-2.6-12.2-4.7-13.8,2.2c-1.9,0.1-4.4-2.5-5.1-4.4c-0.4-1,0.8-2.2,0.7-3.6c-0.1-2.7-2.6-4.3-1.5-6.5c-2.9-0.8-4-4.2-6.5-5.8
			c-0.4-0.3-1.9,0.3-2.2,0c-0.2-0.2,0.2-1.3,0-1.5c-0.7-0.5-2.5-0.2-3.6-0.7c-0.3-0.2-0.5-1.3-0.7-1.5c-4.4-2-5.5-5.5-2.2-10.9
			c0.8-1.3,0.5-4.1,1.5-7.3c-1.3-1.3-3.7-3-5.8-2.9c-1.8,0-2.6,1.6-4.4,1.5c-1-2.4-0.7-5.5-2.2-8c-1.5-2.6-3.7-2.6-5.8-4.4
			c-0.6-0.5-0.9-1.6-1.5-2.2c-0.7-0.7-4.4-3.3-5.1-4.4c-0.7-1.2-0.9-4.2-1.5-5.8c-0.6-2-1.5-3.3-1.5-5.1c0.1-3.8,3.1-2.8,1.5-8
			c0.8-2.1,3.3-2.5,5.1-3.6c-0.7-4.3,2-5.3,2.9-8c-0.4-4.6-4.6-4.6-2.9-9.5c4.3-1,7.9-2.7,11.6-4.4c0.7-5.4,4.5-7.5,3.6-12.4
			c-0.5-2.5-1.7-3.2-3.6-4.4c-1.4-0.9-1.3-2.7-2.9-4.4c-1.2-1.3-3.1,0-2.2-2.2c17,0,31.9-2,48-2.9c-0.7,3.7,0.7,5.5,2.2,8
			c0.3,0.4,1.4,1.2,1.5,1.5c0.2,0.6-0.3,1.6,0,2.2c1.1,2.3,3,4.7,3.6,7.3c0.8,3.3,0.3,7.7,0.7,11.6c1,10.9,2.7,23.5,3.6,33.4
			c0.3,2.9,0.8,6.2,0.7,8.7c-0.1,1.9-1.1,2.1-1.5,3.6c-0.2,0.9,0.7,0.4,0.7,0.7c0.1,0.4-0.8,1.8-0.7,2.9c0.3,2.5,3,5,2.9,8.7
			c0,1.4-0.7,1.7-1.5,3.6c-1.1,2.7-1,3.1-2.2,5.1c-0.7,1.1-1.9,3.9-3.6,4.4c1.2,2.8-0.5,5.2-0.7,8c-0.1,0.9,0.8,2.4,0.7,3.6
			C688.7,318.4,686.4,320.6,688.2,323.9z"/>
		<path fill-rule="evenodd" clip-rule="evenodd" fill="#CFCFCF" d="M675.1,125.4c1.1,3.2,0,4.3,0,8c0.2,1,1.8,0.6,2.9,0.7
			c-1,4.1,1.9,4.4,1.5,8c-0.6,0.6-1.6,0.8-2.9,0.7c0.1,4.5-4.1,6.8-2.2,10.9c1.8,0.7,2.1-0.8,2.9-1.5c2.1-1.8,2.8-5.2,5.8-7.3
			c4.7,1.7,0.4,5.4,0,8.7c-0.4,3.4-0.6,5.3,0.7,8c-2,0.4-2,2.8-2.9,4.4c-0.8,2.3,0.8,4.6,0.7,6.5c-0.1,2.6-1.9,5.5-2.2,8.7
			c-0.2,2,0.5,5.2,0.7,6.5c0.1,0.8-0.7,1.5-0.7,1.5c0.2,0.9,1,2.1,1.5,2.9c1.2,2.4,1.9,4.9,1.5,10.2c-16.5,0.4-31.2,2.8-48,2.9
			c-2.3,0.7-1-2.4-2.2-2.9c-2.6-0.1-4.2-1.1-6.5-1.5c-0.1-4.1-4.3-9.2-0.7-12.4c-0.3-2-2.2-2.1-2.9-3.6c-1.2-2.7-0.4-6.8-1.5-9.5
			c-0.9-2.1-2.1-4.1-3.6-5.1c-0.8-0.6-3.1-0.4-4.4-1.5c-2.3-1.8-3.4-5.3-5.8-7.3c-0.4-0.3-2.5-0.7-3.6-1.5c-0.8-0.5-1.6-1.9-2.2-2.2
			c-1.3-0.6-3.2,0-4.4-0.7c-1.5-0.9-1.3-3.3-3.6-2.9c1.8-5.1-1.3-11.8,2.2-16c-0.8-2.3-2-4.3-4.4-5.1c-1.1-1.6,0.7-1.4,1.5-2.9
			c0.4-0.9,0.2-3,0.7-3.6c0.3-0.3,1.8-0.5,2.2-0.7c1.2-0.8,3.2-2.7,5.1-3.6c0.5-5.6-0.7-9.5-0.7-14.5c1.6,0.1,2.3-0.6,2.2-2.2
			c6.3,4.5,14.9-4.2,21.1-5.8c1.4,2.1-1.6,4.8-1.5,8c6.7-1.5,12.8,1.6,15.3,6.5c4.3,0.5,7.4,0.7,11.6,1.5c1,0.2,2.9,0.5,3.6,0.7
			c2,0.6,3.8,2.5,5.8,2.9c3.2,0.7,7.1-0.3,10.9,0.7c0.3,1.4,2.1,1.3,1.5,3.6C672.2,123.8,673.5,124.8,675.1,125.4z"/>
		<path fill-rule="evenodd" clip-rule="evenodd" fill="#CFCFCF" d="M528.7,202c1.5-0.9,2-5.1,2-7.7c0-2.7-2.2-1.7-1.5-2.9
			c0.7-1.2-1.2-4.1-0.2-4.6c1-0.5,1-0.5,1-0.5s82.2-1.2,90.4-3.2c0,0-0.2,2.9,1.6,3.6c3.3-0.4,0.1,3.2,0,5.1c-0.1,3.3,2.4,6,2.9,9.5
			c2.5,0.2,3.5,1.8,6.5,1.5c0.9,1.7-0.1,1.4,0.7,3.6c0.4,1.1,3.7,1.8,4.4,3.6c0.1,0.3-1.1,1.1-0.7,1.5c0.4,0.4,1.7,0.4,2.2,0.7
			c0.5,0.4,0.9,1,1.5,1.5c3.2,2.6,3.7,4.6,0.7,9.5c-1.4,1,0.2,5.1-2.2,5.1c-1.3,2.2-2.3-2-2.9,0c1.8,2.8-5.1,3.1-8,3.6
			c0.4,1.9-2.2,4.5,0,5.8c0.7,1.7,2.9,1.9,2.2,5.1c0.8,2.7-2.7,1.2-2.2,3.6c0.5,2.2-0.7,2.6-0.7,4.4c-1.3-0.1-1.5,0.9-2.4,1.2
			c0,0-2.5,1.9-2.3,4.6c0.2,2.6-4.5-4.6-6.9-5.1c-0.6-0.1-6.3,1.3-8,1.5c-18.5,2-43.3,2.1-62.5,2.2c0.7-1.5-1.8-2.1-2.2-3.6
			c-0.2-0.9,0.8-3.1,0.7-4.4c-0.1-1.9-1.1-4.6-1.5-7.3c-0.1-0.5,0.8-0.8,0.7-1.5c0,0-0.7-1-0.7-1.5c-0.4-2.9,0.1-2.2-1.5-3.6
			c-1.1-1.1,0.2-1.2-0.7-2.2c0.4,0.4-1.8,0.5-1.5-0.7c0.7-9.2-5.4-11.6-5.1-20.4c-1.8-1.3-4.1-4.5-1.5-4.4c-1.3-0.6-2.8,0.2-2.9-2.2
			c0-1.3,0.6-1.5,0.7-0.7"/>
		<path fill-rule="evenodd" clip-rule="evenodd" fill="#CFCFCF" d="M602.4,102.8c-0.9-1-0.3-1.1,0-2.2c-2.9,0.9,0.2,1.5,0,3.6
			c-2.1,0.1-0.9,3.5-3.6,2.9c-0.5,5.5,0.7,11.8,0,15.3c-2.5,1.6-5.5,1.9-7.3,4.4c-0.4,0.5-0.1,2.5-0.7,3.6c-0.3,0.6-1.9,0.7-1.5,2.2
			c0.3,2.6,3.1,2.7,4.4,4.4c0.4,2.1-1.1,2.9-1.5,5.1c-0.4,3.1,0.9,6.2,0.7,8.7c-0.1,1.1-1.7,1.6-1.5,2.2c0.3,0.9,1.2,2.6,0,2.2
			c0.3,1.2,1-0.5,2.2,0c0.2,0.1-0.2,1.3,0,1.5c0.2,0.2,1.3-0.2,1.5,0c0.4,0.5,0.2,2.3,0,2.2c0.2,0.1,1-0.7,1.5-0.7
			c0.8,0,0.4,0.8,0,0.7c1.8,0.3,1.5-0.1,3.6,0c1,2.5-0.5,1.1,1.5,2.2c0.9,0.5,3.3,1.9,5.1,2.2c1,2.6,3.1,4.1,4.4,6.5
			c1.5,0.9,4.1,0.8,5.1,1.5c3.5,2.3,3.2,7,4.4,10.9c-28.6,2.1-58.5,3-89.4,2.9c-2.1-11.4,3.4-36.8-1.5-44.4
			c-0.1-0.2-1.4-0.6-1.5-0.7c-0.1-0.3,1.1-1.1,0.7-1.5c0,0-2.1,1.2-2.9,0.7c-0.6-0.3,0-4-2.2-3.6c0.6-1.1,1.4-0.9,2.9-2.9
			c0.2-0.3,1.4-1.3,1.5-1.5c0.2-0.4-0.3-1.9,0-2.2c0,0,1.9,1,2.2,0c0.2-0.7-1.2,0.2-1.5-0.7c-0.7-2.6,0.1-6.5-0.7-10.2
			c-0.5-2.3-2.5-3.4-2.9-7.3c-0.3-3.2-0.5-6.6-0.7-9.5c-0.1-1.1,0.7-2.9,0.7-2.9c-0.1-1.5-1.3-3.1-1.5-4.4c-0.6-3.8-0.2-7.3,0-10.2
			c-0.7-1-1.2,0.3-2.2-1.5c-0.4-5.1-2.9-9.9-2.2-17.5c0.3-3,0.2-6.2-1.5-9.5c9.1-2,26,0.5,32.7-1.5c1.4-1.1-0.1-4.5,0-8
			c1.2,0,2.4,0,3.6,0c0.8-0.7,0,3.2,0,2.9c0.1,0.9,0.8,0.3,0.7,0c0.7,2.1,1.7,4.4,2.2,6.5c0.2,0.9,0.5,4.4,0.7,3.6
			c-1,2.9-1.9-0.9-3.6,0.7c0.6,0.6,1.3,0.6,2.2,0.7c-0.1,0,0.3,1.2,0.7,0.7c1.6-2,2.2,0.2,4.4,0.7c0.4,0.1,1.3-0.8,2.2-0.7
			c-0.2,0,5.6,1.1,6.5,1.5c0.3,0.1,1.2-0.2,1.5,0c0.8,0.8,0,2,1.5,2.2c1.1,0.1,4.7-0.1,4.4,0c2.2-0.8,1.3-2.6,3.6-2.9
			c1.9-0.2,4.6,0,6.5,0.7c0.5,0.2,2.8,1.4,2.9,1.5c0.8,0.7-0.3,3.9,2.2,2.2c0.3,2.6,2.3,3.5,3.6,5.1c2.4-0.1,0.5-4.3,3.6-3.6
			c1.3,0.2,0.9,2.1,2.2,2.9c1.1,0.6,4.7-0.4,3.6,2.9c2.6,1.3,7.3-0.1,8.7,0.7c-0.1-1.4,2.4-3,4.4-4.4c2.7-0.5,1.6,2.8,3.6,2.9
			c3.3-0.8,6.2-1.1,9.5-0.7c1.6,0.2,3.8,3.2,6.5,1.5c-0.3,1.9-2.8,3.6-4.4,2.2c-1.6,0.4,0.9,1.1-0.7,2.2c-3.8,1.3-8.3,1.9-10.2,5.1
			c-0.9,0.6-1.6-1.1-2.2-0.7c-0.1,0,0.8,1.1,0.7,1.5c0,0.1-2.4,1.6-2.9,2.2c-1,1.1-1.7,3.2-3.6,2.9c0.8,2.7-1.7,2.9-2.9,4.4
			c-0.2,0.3-0.4,1.9-0.7,2.2c-0.9,0.7-1.9-0.3-2.2,0c-0.2,0.2,0.9,1,0.7,1.5c-0.1,0.1-2.9,1.5-3.6,2.2
			C605.7,100.1,604.9,102.6,602.4,102.8z"/>
		<path fill-rule="evenodd" clip-rule="evenodd" fill="#CFCFCF" d="M662,357.3c1.2,6.6-9.3,5.1-12.4,5.1c0.2-3.9,4.4-3.9,5.1-7.3
			c-1-1.1-1.2-3.7-2.2-4.4c-2-1.3-19.5,1.1-26.2,1.5c-18.8,1-43.7,1.7-59.6,2.2c-0.3-21.3-0.5-42.7-1.5-63.3
			c-1.1-1.3-3.1-1.7-4.4-2.9c0.2-4.4-4.2-4-4.4-8c1.1-1.3,1.8-3,3.6-3.6c0.7-5.2-3.3-3.8-5.8-4.4c0.2-1.8-2.1-1.2-2.9-2.2
			c-1-1.2-1.3-3.6-2.2-5.1c-1.7-2.9-5.1-5.2-5.1-8.7c13.7,0,30.2,0.2,45.1-0.7c2.9-0.2,8.3-0.4,13.1-0.7c4.6-0.3,9.4-2.2,12.4-1.5
			c3,0.7,4.3,4,6.5,5.1c-1.5,5.1-0.3,11.3,2.2,15.3c0.8,1.4,2.3,2.3,3.6,3.6c0.5,0.5,1.7,0.9,2.2,1.5c0.5,0.6,0.1,1.7,0.7,2.2
			c0.7,0.6,2.9,0.9,3.6,1.5c1.2,0.9,0.8,2.1,2.2,2.2c1,3.1,0.9,7.4,2.9,9.5c2.6,0.4,2.1-2.2,4.4-2.2c1.6,0.9,3.3,1.5,5.1,2.2
			c-0.4,6.4-6.1,11.8-2.2,16.7c1.2,1.5,2.1,2.5,3.6,3.6c1,0.7,3.7,0.6,3.6,2.9c2.6-0.9,4.3,1.6,5.8,2.9c0.5,0.4,1.9,1,2.2,1.5
			c0.4,0.6,0.2,2.3,0.7,3.6c0.4,0.9,2.5,2.1,1.5,4.4c0,0-1.4,0.9-1.5,0.7c0.7,2.8,3.5,4.1,3.6,6.5c1.8,1.3,3.5-0.8,5.1,1.5
			c-0.9,0.8,0.2,1.8,0,2.9c-0.2,1.1-1.1,1.5-1.5,2.9c-0.2,0.8,1.3,1.3,0,2.9c0.3-0.3-1.8-0.2-2.2,0c-1.5,0.8-2.3,3.8-2.9,0
			c-1.8,1.7-1,3.2-0.7,5.8c-2.5,0.4-0.9,1.2-1.5,2.2C661.6,355.8,660.7,357.1,662,357.3"/>
		<path fill-rule="evenodd" clip-rule="evenodd" fill="#CFCFCF" d="M653.3,375.5c-0.4,3.1,1.3,4.1,1.5,6.5c-0.6,2.4-2,3.8-4.4,4.4
			c0.6,1.3,2.3,2.1,0.7,3.6c-1.4,1.2-0.9-0.1-2.9,0c0.2,2.1-0.2,2.5-1.5,1.5c-0.6,3.4-0.6,7.2,0,8.7c-0.8,2.4-4.4,1.9-4.4,5.1
			c-1.4,1.2-0.9-0.1-2.9,0c0.4,2,1.1,3.8,1.5,5.8c-2.6-0.4-3.2,1.2-4.4,2.2c0.3,1.4,2.1-1.2,1.5,2.2c-0.8,1.4-1,3.3-2.9,3.6
			c-0.5,1.6,2.1,2.3-0.7,2.2c-0.7,1.3,1.4,1.8,1.5,2.2c0,0.4-1.4,1.7-1.5,1.5c0.9,3,2.5,1.6,2.9,3.6c0.1,0.8,0.7,2.1,0.7,2.2
			c0.1,1.7-1.2,1-1.5,2.2c-0.1,0.5,1.3,1.7,0.7,2.9c-9.9-0.4-19.8,1.7-30.5,1.5c-1.5,0-3.6-0.8-5.1-0.7c-1.5,0.1-2.8,1.2-4.4,1.5
			c-5.6,0.8-11.4-0.8-16.7,0c0-4.1,0-8.2,0-12.4c-0.8,0.1-1.3-0.2-1.5-0.7c-1.3-0.8-2.6,0-3.6,0c-0.1,0,0.1-1.4,0-1.5
			c-0.8-0.8-1,2.2-2.9,1.5c-2.5-15.2,0-32.4-1.5-48c-0.7-7.8-3.6-14.9-3.6-21.8c23.8-0.2,49.5-1.3,73.4-2.9
			c4.5-0.3,11.3-3.1,12.4,2.9c0.1,2.2-2.1,3.7-3.6,2.2c2,1.8-2.7,4-0.7,5.8c3.9,2.7,6.4-1,12.4,0c0.8,1.5-1.3,1.1-1.5,1.5
			c-0.3,0.6,0.6,1.7,0.7,1.5c-1,1.7-1.8,1.6-3.6,2.9c1.1,3.3-0.3,3.4-2.2,5.1L653.3,375.5z"/>
		<path fill-rule="evenodd" clip-rule="evenodd" fill="#CFCFCF" d="M517.3,55.6c0.4,2,0.5,3.4,0.7,5.1c0.3,2.4-0.2,4.3,0,8.7
			c0,0.6,0.9,1.1,0.7,2.2c-0.3,1.8,0.4,6.2,1.5,9.5c0.8,2.6,2.5,4.7,2.9,7.3c0.2,1.4-0.7,2.6-0.7,2.9c0,1.2,1.3,5.4,1.5,8
			c0.1,1.5-0.8,1.9-0.7,2.9c0,0.4,0.3,5.6,0.7,8c0.2,1.2,0.2,3,0.7,4.4c0.3,0.9,1.9,2,2.2,2.9c0.8,2.9,0.3,5.8,1.5,8.7
			c-41.6,1.9-84.3-1.5-124.3-3.6c2.3-23.7,2.5-49.4,5.8-72C443.7,54,482.1,53.1,517.3,55.6z"/>
		<path fill-rule="evenodd" clip-rule="evenodd" fill="#CFCFCF" d="M528.3,208.1c-3.9-4.6-9.8-5.4-12.5-7.9c-2.2,0.9-5.2,0.3-8,0.7
			c-2.1,0.4-3,0.6-4.4,1.5c-1.2-0.7-3.4-1.2-5.1-2.2c-1.4-0.9-2.5-2.6-3.6-2.9c-3.1-0.8-7,0.1-10.2,0c-26.9-1.2-60.4-2-85.8-4.4
			c0.5-24.5,3.7-46.2,5.1-69.8c39.5,3.1,80.7,4.6,123.6,4.4c0.4,4.5-3.8,4.4-4.4,8c1.2,1.2,1.6,3.3,2.9,4.4c0.9,1.3,3.5,0.9,3.6,2.9
			c0.4,13.4-0.9,28.5,0.7,40.7c0.3,3.6-2.2,0.4-2.9,2.2c-0.4,1.7,1.5,2.2,1.5,3.6c0,1.3-0.9,1.5,0,3.6c0.5,1.1,0.8,4.8,0,7.3
			c-0.4,1.1-2.5,3.4-0.8,5L528.3,208.1z"/>
		<path fill-rule="evenodd" clip-rule="evenodd" fill="#CFCFCF" d="M550,269.3c-39.7,2.1-81.1-0.3-120-1.5c-0.6-8.8,1.1-15.4,0.7-24
			c-11.2-1.7-24.5-1.2-35.6-2.9c1.5-15.5,1.7-32.3,3.6-47.3c21.4,2.8,50,2.4,73.4,4.4c6.8,0.6,14.6-1.2,20.4,0c3,0.6,5.6,3,8.7,4.4
			c0.7,0.3,1.3,0.7,1.5,1.5c2.1,0.7,2.2-1.8,3.6-2.2c1.9-0.5,6.5,1,8.7-0.7c2,0.2,1.1,2,2.9,2.9c1.5,0.7,3.8,0,5.1,0.7
			c1.4,0.8,2.5,2.8,3.6,3.6c1.4,1.1,2.5,2,4.4,2.2c-1.5,1.7,1.4,3.9,1.5,5.1c0.1,1.4-0.7,2.9,1.5,5.1c0.6,0.6,0.8,1.9,1.5,3.6
			c0.8,1.9,2.1,3.6,1.5,8c0,2.1,2.2,2.1,2.9,3.6c0.7,1.1-0.1,2.9,0,3.6c0.4,1.7,1.3,1.6,1.5,2.9c0.2,1.6-0.8,1.9-0.7,2.9
			c0,0.2,0.7,1.3,0.7,2.2c0,1.1,0.1,0.9,0,2.2c-0.3,3.6,1.3,7.2,2.9,10.2c0.2,0.4,0.4,1.6,0.7,2.2
			C545.8,263.6,549.8,265.9,550,269.3z"/>
		<path fill-rule="evenodd" clip-rule="evenodd" fill="#CFCFCF" d="M557.3,276.6c-0.4,0.6-1,2.2-1.5,3.6c-0.4,1.3,0.3,3.4-1.5,3.6
			c0.6,2.1,1.1-1.7,2.9-0.7c-0.1,1.6,0.6,2.3,2.2,2.2c-0.8,4.9,4,4.3,5.1,7.3c0.1,16.6,1.2,32.2,0.7,49.4
			c-46.2,2.1-93.5-0.3-138.9-1.5c1-24.2,1.9-48.5,3.6-72c23.4,2.3,49.4,0.9,74.2,2.9c7.7,0.6,16.6,0.3,24,0c8.6-0.4,16.5-2,21.8-0.7
			c2.7,0.6,2.4,0.8,4.4,2.9c2.1,2.1,3.3-2.5,3.6,0.7c1.2-0.3,1.4,0.6,1.5,1.5C555.8,274.8,557.8,275.6,557.3,276.6z"/>
		<path fill-rule="evenodd" clip-rule="evenodd" fill="#CFCFCF" d="M556.5,416.2c-2.3-0.6-1,2.4-2.9,2.2c-2.3,0.3-2.8-1-4.4-1.5
			c-3.3,0.1-5,3.7-7.3,0.7c-2.4,1.4-4.9,2.8-7.3,4.4c-2.3-0.9-4-2.3-5.8-3.6c-1.7-1.8-1.4,1.1-3.6,0.7c-0.2-1.7-2.3-1.6-2.9-2.9
			c-1.3,1.8-4.2,2.1-3.6,5.8c-2.3-0.5-0.9-1.9-0.7-3.6c-2.1-0.2-3.7,0.2-4.4,1.5c-1.7-1.2-2.8-3.1-5.1-3.6c-2.4-2-2.1,3.3-5.8,2.2
			c1.2-4.4-4.4-1.9-2.9-6.5c-3-0.1-6.1-0.3-7.3,1.5c-5.1-1.6-10-3.4-14.5-3.6c1-4.2-2.7-3.6-2.9-6.5c-1.5,3.2-2.4,1.5-4.4,1.5
			c-0.5,0-0.9,0.7-0.7,0.7c-3.1-0.5-4.3-4.5-7.3-5.1c0.2-15.1,0.8-29.7,1.5-44.4c-4.4-4.2-11.6-1.6-18.2-2.2
			c-11.1-0.9-28-2.2-39.8-2.7c0.7-4.7,0.7-7.1,1.3-10.4c51,2.8,104.3,3.3,158.5,2.9c-1.2,13.8,3.4,25.2,4.4,37.8
			c1,13.4-0.7,26.8,0,42.2C564.6,422.2,561.4,418.4,556.5,416.2z"/>
		<path fill-rule="evenodd" clip-rule="evenodd" fill="#CFCFCF" d="M217.7,25c10.2,0.9,23,4.1,33.4,5.8c17.3,2.9,35.6,6,53.8,8.7
			c21.9,3.2,45.2,5.9,67.6,8c7.5,0.7,15,1.7,22.5,2.2c4.5,0.3,9,0.1,13.1,0.7c-3,30.9-3.8,64.1-7.3,94.5
			c-30.6-2.6-61.9-5.2-92.3-9.5c-8.5-1.2-17.1-3.2-25.5-2.9c-2,2.1-1.9,6.3-2.2,10.2c-3,0.1-1.5-4.4-3.6-5.1c-4-0.8-2.3,4-5.8,3.6
			c-3-0.9-6.3-2.1-9.5-2.2c-1.6,0-2.3,1.3-3.6,1.5c-1.4,0.1-2.7-0.7-4.4-0.7c-2.3,0-3.1,0.8-5.1,1.5c-0.8-3.8,0-11-5.8-11.6
			c-1.6-1.6,0.6-2.5,0-5.1c-0.3-2.1-2.2-3.4-2.9-5.8c-1.1-3.4-0.1-8-2.2-10.9c-2.8-0.5-4,2.6-5.8,2.9c-2.5,0.5-2.1-0.1-5.1-1.5
			c-1-2.1,1.5-2.2,1.5-3.6c0-0.3-0.5-1.1-0.7-0.7c1-1.8,1.9-1,2.9-2.9c-1.6-7.2,2.7-11.5,4.4-17.5c0-2.4-4.1-0.7-5.1-2.2
			c1.9-2-0.4-0.3-1.5-1.5c-0.5-0.5-0.3-1.6-0.7-2.2c-1.1-1.5-1.1-0.4-0.7-2.2c0.1-0.5-1.2-1.7-1.5-2.2c-1-1.9-2.4-4.7-3.6-6.5
			c-0.8-1.2-1.9-1.7-2.9-2.9c-0.5-0.6-0.2-1.5-0.7-2.2c-0.6-0.8-1.6-1.5-1.5-2.9c0.1-1.2,0.9-1.6,0.7-2.9c-0.5-4.1-2.7-6.4-4.4-9.5
			C215.1,40.3,216.8,33.1,217.7,25z"/>
		<path fill-rule="evenodd" clip-rule="evenodd" fill="#CFCFCF" d="M400.9,145.7c-3.2,31-4.1,64.3-7.3,95.3
			c-43-3.1-84.6-7.5-124.3-13.8c3.6-21.9,6.7-46.4,10.2-70.5c0.5-3.6,1.6-7.2,2.2-10.9c0.6-4.5-0.3-9.4,2.9-12.4
			c4.6,0.4,15.4,1.8,23.3,2.9c25,3.4,53.1,6.7,79.3,8.7C391.7,145.3,396.4,145.9,400.9,145.7z"/>
		<path fill-rule="evenodd" clip-rule="evenodd" fill="#CFCFCF" d="M305.7,233.7c40.6,4.5,81.8,8.3,124.3,10.9
			c-2.1,31.6-2.9,64.5-5.1,96c-44.5-2.9-88.4-6.8-131.6-11.6c-0.1-3.7,0.2-7.8,0.7-11.6c3.3-26,7.2-55.3,10.9-81.4
			C304.9,234.9,304.8,233.8,305.7,233.7z"/>
		<path fill-rule="evenodd" clip-rule="evenodd" fill="#CFCFCF" d="M404.6,353c-1.1,8.9-0.9,18.5-1.5,27.6c-1.1,18-2.3,36-3.6,53.8
			c-0.6,8.7-1,17.3-2.9,25.4c-24.1-1.6-47.7-3.7-71.3-5.8c-2.5,0.9,1.9,4.7,0,5.1c-10.3-1.3-21.4-1.9-31.3-3.6
			c-2.1,2.5-1.1,8.1-2.9,10.9c-4.7-1.1-10.9-0.8-15.3-2.2c5.4-45,11.6-89.3,16.7-134.5c37.2,4,73.9,8.6,113.4,10.2L404.6,353z"/>
		<path fill-rule="evenodd" clip-rule="evenodd" fill="#CFCFCF" d="M164.6,418.4c0.2-1.7,2.5-1.4,2.2-3.6c0.7-0.7,3.4,0.9,4.4,0
			c0.1-0.1,1.2-3.4,1.5,0c1.1-0.6,0-3.9,0.7-4.4c0.4-0.3,2.2,0.7,2.2,0.7c-0.2-1-2.1-2.2-2.9-2.9c-0.9-0.8-1.3-1.8-2.9-2.2
			c1-3.2,0.1-4.9,0.7-7.3c0.2-1.8,3.3,1,3.6,0.7c0.4-0.3-1.5-1.5-1.5-1.5c-0.2-0.9,3.2-5.1,3.6-6.5c0.6-2.1-0.1-4.5,0.7-5.8
			c2.6-4.1,5.9-2.7,8.7-7.3c-0.1-2.1-1.5-2.8-3.6-4.4c-0.2-7.5-5.8-13.1-0.7-18.2c-0.2-8,0.2-16.5,0.7-21.8c3.3-1.1,3.1,0.6,6.5,0.7
			c1.2,0.5-0.2,3.6,2.2,2.9c1.9,1.9,2.3-1.5,3.6-2.9c1.1-1.1,1.5-2,2.2-5.8c0.7-3.6,1.5-9.8,2.2-13.8c10.1,1.7,20,4.2,30.5,5.8
			c1.2,0.2,2.5-0.2,3.6,0c17.3,2.8,39,6.1,58.9,8.7c-6.2,44.5-11.1,90.2-17.5,134.5c-13.6-1.4-26.1-3.9-40-5.1
			c-0.6-0.3-0.7-1.8,0-1.5c-1.2-0.5-6.7-0.6-5.1-3.6c-1.5,1.7-3.3-0.6-5.1-1.5c-1.5-0.8-4.5-1.6-5.1-2.2c-0.1-0.2,1.1-1.3,0.7-1.5
			c-0.7-0.4-0.6,0.7-0.7,0.7c-0.9,0.2-0.4-0.6-0.7-0.7c-3.5-1.3-7.1-3.3-10.2-5.1c-2.6-1.5-5.1-2.9-7.3-5.1
			c-0.4-0.4-1.6,0.3-1.5-0.7c0,0.2,1.2-0.4,0.7-0.7c0,0-2.9,1.4-3.6,0c0-0.1,1-1.4,0.7-1.5c-0.7-0.3-1.7,0.8-3.6,0
			c-1.4-0.5-2.3-2.1-3.6-2.9c-0.8-0.5-1.5-0.3-2.2-0.7c-2.3-1.4-6.6-3.6-9.5-5.8c-0.5-0.3-1.6,0.2-1.5-0.7c0,0.2,1.2-0.4,0.7-0.7
			c-0.7-0.4-0.6,0.7-0.7,0.7c-0.6,0.1-4.5-2.9-5.8-3.6C169,420.9,166.5,420.2,164.6,418.4z"/>
		<path fill-rule="evenodd" clip-rule="evenodd" fill="#CFCFCF" d="M192.2,337c-2.9,0.2-2-3.4-4.4-3.6c-2.2,0.1-4.1-1.7-5.8,0
			c-1.9,0.4-1.4,2.1-1.5,3.6c0,1.2,0.1,1.7,0,2.9c-0.2,2.6-0.5,5.3-0.7,8c-0.2,2.4,1.2,4.4,0.7,6.5c-0.4,1.8-3.3,2.1-2.2,4.4
			c-15.3-21.4-32.7-47.7-49.4-72c-2.6-3.8-6-7.9-8.7-12.4c-1.1-1.7-2-3.4-3.6-5.8c-0.3-0.5-1.2-1-1.5-1.5c-0.3-0.6-0.3-1.5-0.7-2.2
			c-0.7-1.1-2.1-1.8-2.9-2.9c-0.5-0.7-0.3-1.5-0.7-2.2c-1.4-2.2-4.4-5.5-6.5-8.7c-3.5-5.2-5.1-6-3.6-12.4c0.3-1.3,1.2-2.4,1.5-3.6
			c0.8-3.2,0.8-6.8,1.5-9.5c4.1-17.1,9.3-34.5,13.1-51.6c33.2,8.2,67.7,15.2,102.5,21.8c-5.4,28.7-10.1,59.3-16,88
			c-1.9,9.1-2.7,18.7-4.4,27.6c-0.8,4.4-2.1,8.7-2.9,13.1C195.1,328.8,195.3,333.5,192.2,337z"/>
		<path fill-rule="evenodd" clip-rule="evenodd" fill="#CFCFCF" d="M219.9,195.9c17.2,2.7,33.5,6.2,51.6,8c-0.8,8.6-2,16.9-3.6,24.7
			c12.7,0.9,23.8,3.4,36.4,4.4c-4.5,31.4-7.9,63.9-12.4,95.3c-32.2-3.4-62.5-8.8-93.1-13.8C205.9,275,213.2,235.7,219.9,195.9z"/>
		<path fill-rule="evenodd" clip-rule="evenodd" fill="#CFCFCF" d="M169.3,185.5c1.1-7.7,2.8-13.1,4.2-19.7c1.4-6.9,2.2-14,3.6-20.5
			c0.5-2.2,2.1-4,2.9-5.9c0.7-1.8,0.6-4.3,1-6.2c-0.7-1.5-3.5-1.1-3.4-3.4c-0.1-7.5,4.8-8.5,8.9-11.7c-1.3-2.3,0.6-3.3,1.5-4.8
			c0.8-1.4,2-4.5,2.9-5.8c2.1-3.1,4.7-4.1,4.6-6.8c-0.1-1.9-1.8-3.5-2.9-5.1c-1.1-1.5-1.6-1.7-2.5-3.9l0.7-1.5
			c-0.8-1.8,0.1-2.1-0.6-4.8c-0.2-0.8-0.3-3.3-0.2-4.1c0,0.1,0.7-0.7,0.9-1.3c0.8-2.2-0.1-5.6,0.3-7.6c1.4-7.6,4.5-15.1,5.6-23.8
			c0.6-5.4,2.5-8.4,2.9-12.4c0.1-1.2,0.6-3.5,0.7-3.6c0.2-0.4,1-4.5,1-4.4c0.7-3.8,0.4-3.8,1.7-6.3l13.3,2.9
			c-0.9,8.3-2.1,14.6-3.9,22.1c1.7,3.1,3.3,5.4,3.8,9.7c0.2,1.3-0.6,1.7-0.7,3c-0.1,1.5,0.8,2.2,1.5,3c0.5,0.7,0.3,1.7,0.7,2.3
			c1,1.2,2.1,1.7,2.9,3c1.3,1.9,2.6,4.8,3.6,6.8c0.3,0.5,1.6,1.8,1.5,2.3c-0.4,1.9-0.4,0.7,0.7,2.3c0.4,0.6,0.3,1.7,0.7,2.3
			c1,1.2,3.7,0.4,1.8,2.4c1,1.5,4.8-1.1,4.8,1.4c-1.6,6.2-5.7,9.2-4.1,16.6c-1,2-1.9,1.2-2.9,3c0.2-0.4-0.2,1.6-0.2,1.8
			c0,1.5-0.7,1.7,0.2,3.9c3,1.4,3.6,1.7,6.1,1.2c1.8-0.4,2-2.9,4.8-2.4c2,2.9,0.5,6.6,1.7,10.4c0.8,2.5,2.4,3.4,2.7,5.6
			c0.6,2.7-1.2,4,0.5,5.6c7.2,0.8,4.8,5.8,6.1,11.9c2-0.7,2.8-1.2,5.1-1.2c1.6,0,2.5,0.6,3.9,0.5c1.4-0.1,3.5-1.7,5.1-1.7
			c3.1,0.1,5.9,1,9,1.9c3.5,0.4,1.8-4,5.8-3.2c2.2,0.7,0.1,5.5,3.2,5.3l-8.8,59.1L169.3,185.5z"/>
		<path fill-rule="evenodd" clip-rule="evenodd" fill="#CFCFCF" d="M47.5,266.4c2.9,0.7,2.7,4.5,5.8,5.1c0.1-0.9,0.1-2.9-0.7-6.5
			c-0.5-2-2-4.9-2.2-8c1.5-0.4,2.2-0.1,3.6,0c0.7,0.1,1.1,0.9,2.2,0.7c0.6-0.1,3.2-0.7,4.4,1.5c2.2,0.5,2.6-0.7,4.4-0.7
			c1.1,1.1,1.3,3.1,2.9,3.6c1.2-4.2-5.3-3.4-3.6-5.8c-3.3,2.7-6.3-2.2-8.7,0c-2.4-0.7-2.3-4-5.8-3.6c-2.2,0.7-1.4,4.4-2.2,6.5
			c-1.4-1-3.1-2.8-4.4-4.4c-1.1-1.4-3.3-2.4-2.2-4.4c0.8,0.2,0.5,1.4,1.5,1.5c-0.3-3.3-0.8-6.3-2.2-9.5c-0.4-0.9-1-0.8-1.5-1.5
			c-0.4-0.5-1.9-2.7-2.2-3.6c-0.2-0.6,0.3-1.6,0-2.2c-1.1-2.2-3.3-4.4-3.6-6.5c-0.1-1,1.4-2.9,1.5-5.1c0.1-2.2-0.9-3.9-0.7-5.1
			c0.7-3.9,3.7-5,2.9-10.9c-0.3-2.7-1.6-6.1-2.9-8.7c-0.8-1.5-2.8-3.2-2.9-5.1c-0.4-4.9,2.6-9.4,7.3-10.9c-2.1-1.3,1.1-2.5,1.5-3.6
			c0.3-1-0.5-3.1,0-4.4c0.8-2,2.9-3,3.6-5.1c1.5-4.1-0.9-10,1.5-14.5c23.8,5.8,45.9,13.3,70.5,18.2c-1.9,12.3-5.2,24-8,35.6
			c-2.8,11.7-5.7,23.3-8.7,34.9c14.5,22.1,30.4,43.4,45.1,65.4c0.9,1.3,1.3,3,2.2,4.4c0.7,1.1,2.2,1.9,2.9,2.9
			c0.9,1.3,1.3,3,2.2,4.4c0.7,1.1,2.2,1.9,2.9,2.9c0.9,1.3,1.3,3.2,2.2,4.4c0.8,1.1,2.2,1.8,2.9,2.9c0.9,1.3,1.4,3.1,2.2,4.4
			c0.3,0.5,1.2,1,1.5,1.5c4.6,7.3,10.1,16.1,16,23.3c-2.3,4.5,4.1,9.1,2.2,13.1c0.7,2.2,3.5,2.3,3.6,5.1c-0.6,2.7-3.8,2.5-5.1,3.6
			c-1.2,1-2.8,2.7-3.6,4.4c-0.9,1.9-0.3,5.8-1.5,8c-0.2,0.4-1.1,0.9-1.5,1.5c-0.7,1-1.5,2.2-3.6,2.9c0.2,3.3,0.7,4-0.7,6.5
			c-0.1,2.5,3.2,1.6,3.6,3.6c0.8,3-1.5,2.8-1.5,5.1c-14.9-1.3-34.6-3.6-51.6-5.1c-0.7-1,0.7-3,0.7-2.9c-0.4-2.4-2-0.7-2.2-2.2
			c-0.2-2.1,1.1-5.4,0.7-8.7c-1.1-9-8.6-12.3-12.4-19.6c-2.1-0.8-3-0.8-5.1,0c0.4-3.3-0.4-5.4-0.7-8c-5.7-1.6-9-1.6-12.4-5.1
			c-0.9-1-0.8-2.5-1.5-3.6c-2-3.5-4.7-6-9.5-5.8c-2-3-6.3-3.2-10.2-3.6c-1.5-0.2-1.9-3.7-4.4-3.6c2.2-3.1,1.5-9.1,3.6-12.4
			c-0.1-2.8-2.9-2.9-4.4-4.4c0.3-1.4,1.6-1.8,1.5-3.6c-0.3-2.3-2.5-3.3-3.6-5.1c-0.3-0.5,0.3-1.6,0-2.2c-0.2-0.5-2.4-1.7-2.9-2.9
			c-1-2.3-0.5-4.9-1.5-7.3c-0.3-0.8-1.7-1.2-2.2-2.2c-0.5-1.1-0.3-2.2-0.7-2.9c-1.9-3.3-3.3-5.1-2.2-10.9c2.6,0.4,2.1-2.2,4.4-2.2
			c0.2-2.6-0.1-4.7-0.7-6.5c-0.3-1.6-3.9,0-4.4-1.5c-1.1-2.3-3.1-3.7-3.6-6.5c-0.3-1.4,1.3-2.1,1.5-3.6c0.1-1.5-1.8-4.5-0.7-5.1"/>
		<line fill-rule="evenodd" clip-rule="evenodd" fill="#CFCFCF" x1="46.1" y1="266.4" x2="46.8" y2="266.8"/>
		<path fill-rule="evenodd" clip-rule="evenodd" fill="#CFCFCF" d="M46.8,266.8c-0.1-1.1,0.1-2.3,0.7-3.3"/>
		<line fill-rule="evenodd" clip-rule="evenodd" fill="#CFCFCF" x1="46.8" y1="266.8" x2="47.5" y2="266.4"/>
		<path fill-rule="evenodd" clip-rule="evenodd" fill="#CFCFCF" d="M43.9,153c-1.8-4.7-0.3-11.1,2.2-13.8c-3.4-6.9,3.2-9.8,3.6-15.3
			c1.6,2.8,2.9-4.3,3.6,0c2.7-2.4-0.7-3.2,0.7-5.8c1.7-0.4,1.2-3.2,4.4-2.2c0.5-2.2-1.3-2.1-0.7-4.4c3.1-3.4,2.8-10.3,6.5-13.1
			c-0.7-7.9,6.4-13.9,7.3-22.5c1.1-0.8,1.8-0.8,2.9,0c-0.2-1-1.4-1.1-1.5-2.2c0-1.3,1.1-1.4,1.5-2.9c0.3-1.2-0.2-2.7,0-3.6
			c0.7-2.7,2.2-5,2.2-8c2.4-0.9,0.6,2.4,2.9,1.5c1.9-2.1,6-0.2,5.8,2.2c3.6-0.7,4.9,0.9,6.5,2.2c-0.5,0.9,0.7,1.2,0.7,1.5
			c1.4,6.6-3,8.9,2.2,12.4c0.9,0.6,2,0.2,2.9,0.7c0.6,0.4,0.4,1.3,1.5,1.5c1.4,0.2,3.7,0.3,5.1,0c1.5-0.3,2-1.5,3.6-1.5
			c4.2,0,7.5,1.6,10.2,4.4c2.8,1.4,5.7-0.3,8.7,0c1.4,0.2,2.9,1.4,4.4,1.5c5.1,0.1,10.2-1.5,15.3-1.5c1.7,0,4.1,0.6,5.8,0.7
			c1.8,0.1,3.5-0.2,5.1,0c5.2,0.6,10.3,2.6,15.3,3.6c5.3,1.1,10.3,2.2,16,2.9c0.9,2.2,1.9,3.6,2.9,5.1c1.1,1.6,2.9,2.5,2.9,4.4
			c0.1,2.6-3,5-5.1,8c-0.9,1.3-1.4,3-2.2,4.4c-0.9,1.5-3.5,2.1-2.2,4.4c-4.1,3.2-8.9,5.7-8.7,13.1c-0.1,2.3,2.9,1.4,3.6,2.9
			c-0.4,1.8-0.2,3.8-0.9,5.6c-0.8,1.9-2.4,3.6-2.9,5.8c-1.4,6.5-2.2,13.5-3.6,20.4c-1.3,6.6-3.3,13.2-4.4,19.6
			c-34.4-6.4-68.2-15.8-100.2-24.5c-1-0.3-1.8-0.6-2.2-0.7C58.4,157.2,50.6,156.7,43.9,153z"/>
		<path fill-rule="evenodd" clip-rule="evenodd" fill="#CFCFCF" d="M110.8,22.1c1.6-0.4,1,1.4,2.2,1.5
			C112.7,25.4,110.2,23.6,110.8,22.1z"/>
		<path fill-rule="evenodd" clip-rule="evenodd" fill="#CFCFCF" d="M108.6,25.7c1.8,0.3,0,2.8-1.5,2.2
			C107.4,27,108.4,26.8,108.6,25.7z"/>
		<path fill-rule="evenodd" clip-rule="evenodd" fill="#CFCFCF" d="M80.3,54.8c0.5-2.7-2-4.3,1.5-4.4c-0.5-0.7-1.7-0.8-1.5-2.2
			c2-0.1,1.5,1.2,2.9,0c1.5-2.3-2.9-2.3-0.7-2.9c-0.1-1.4-2.7,1.1-3.6-0.7c-0.2-3.3,4-2.3,5.8-3.6c-2.2-0.7-3-2.9-5.1-3.6
			c1.2-3.1-0.6-6.7,0-10.9c0.2-1.7,1.1-5.8,0-8.7c-0.3-0.9-1.3-1.2-1.5-2.2c-0.3-1.7-0.2-4.3,0-5.8c0-0.1,1.3,1,1.5,0.7
			c0,0-0.8-1.6-0.7-2.2c0.2-1.1,3.6-2.6,0.7-2.2c0.2-2,1.2,0.6,2.2,1.5c1.8,1.7,3.5,1.6,2.2,4.4c0.7-0.5,0.8-1.7,2.2-1.5
			c0.2,3,3.3,2.4,6.5,3.6c0.3,0.1,0.5,1.3,0.7,1.5c1,0.5,3.2,0.1,4.4,0.7c1,0.5,1.8,2.4,4.4,0.7c-1,3.2,4.2,2.3,2.2,4.4
			c1,0,1.9,0,2.9,0c0,1.5,0,2.9,0,4.4c-3-1.6-2.7,1.5-4.4,0c-1.9,0.2,1,1.3,0,2.9c-1,0.7-6.1,3.5-6.5,5.1C95.9,35,99,35.6,97,36.6
			c1.4-1,4.2-0.7,5.8-1.5c-2.1,1.6-3.1,4.2-6.5,4.4c1.5,0.9,1,3.8,2.9,4.4c0.7-0.5,1.1-1.3,1.5-2.2c0,1.1,1.8,1.3,0.7,2.9
			c2.5-1.1,2.7-3.3,4.4-4.4c0.6-0.4,0.7,0.7,0.7,0.7c1.4-0.2,2.8-2.4,4.4-2.9c-0.6-1.4,0.7-3,0.7-4.4c0-0.7-0.6-2.6-0.7-2.2
			c0.3-0.9,1.1-0.1,1.5-0.7c0.4-0.7-0.4-2.2,0-2.9c0.6-1,2.6-1.3,2.9-2.9c1.3,0.7,2.8,1.6,1.5,2.9c2.7-1.4-1.6-3.5-2.2-6.5
			c-0.4-2.1,2-4.8-0.7-6.5c1.1-1.9,2.7-5.6,2.2-8.7c-0.2-1-1.2-0.1-1.5-0.7c-0.2-0.3,1.1-2.2,0-0.7c-1.2-0.5-0.5-1.7,0.7-1.5
			c0-1.4-1.7-0.1-1.5,0c-1.8-0.9,0.8-3-0.7-1.5c-1.2-3.4,1.9-0.8,2.9-0.7c2.2,0.2,6.1,0.7,8.7,1.5c2.6,0.7,5.1,2.3,7.3,2.9
			c1.1,0.3,2.5-0.2,3.6,0c2.3,0.5,4.3,2.5,5.8,2.9c0.4,0.1,1.8-0.9,2.9-0.7c1.7,0.2,3.4,1.7,5.1,2.2c1.1,0.3,2.5-0.3,3.6,0
			c1.6,0.4,3.5,1.9,5.1,2.2c4.4,0.8,8.2,1.9,12.4,2.9c4.4,1,8.7,1.2,13.1,2.2c0.9,0.2,2.2,1.3,2.9,1.5c5.3,1.2,10.6,1.1,15.3,2.9
			c-1.3,2.5-0.8,4.2-1.5,8c0-0.1-0.5,2.5-0.7,2.9c-0.1,0.2-1.4,0.6-1.5,0.7c-0.1,0.4,0.8,1.8,0.7,2.9c-0.4,3.9-2.3,7-2.9,12.4
			c-1.1,8.6-4.4,17.9-5.8,25.5c-0.4,2,0,3.7-0.7,5.8c-0.2,0.6-1.5,2.3-1.5,2.2c-0.1,0.8,1.2,1.4,1.5,2.2c0.7,2.7-0.8,4,0,5.8
			c-5.4,0.9-10.6-1.8-16-2.9c-3.2-0.7-7.3-0.4-10.2-1.5c-0.2-0.1-0.6-1.4-0.7-1.5c-0.4-0.1-1.3,0.8-2.2,0.7
			c-1.3-0.1-3.1-1.3-4.4-1.5c-2.4-0.3-2.8,0.4-5.1,0c-1.1-0.2-5.9-0.7-5.8-0.7c-0.5,0.1-0.7,1.5-0.7,1.5c-1.2,0.1-2.7-0.8-4.4-0.7
			c-1.5,0.1-8.1,1.8-9.5,1.5c-0.5-0.1-0.8-2.1-2.2-1.5c1.2-1.4-0.1-0.9,0-2.9c-0.9,0.2-0.7,1.4,0,1.5c-0.1,1.5-1.6,0-1.5,0
			c-0.6,0.1-1.2,1.4-1.5,1.5c-2.1,0.3-4.3-0.2-7.3,0c0.5-2-1.4-1.5-1.5-2.9c-4.2,0.1-6-2.3-9.5-2.2c-0.8,0-1.7,1.3-2.2,1.5
			c-1.1,0.3-1.1-0.7-1.5-0.7c-1.9-0.1-2.9,1.6-3.6,1.5c-1.6-0.2-4-3.2-6.5-3.6c-0.3-4.5,1-7.3,0-10.9c-0.1-0.4-0.2-1.9,0-1.5
			c-0.5-1.1-0.6,0.1-0.7,0c-3.1-1.6-1.3-4.8-5.8-2.9c1.4-1.5-0.3-1,0-0.7c-0.7-0.5-0.8-2.5-2.2-2.9c-0.5-0.2-1.8,0.3-2.2,0
			c-0.5-0.4-0.4-2.3-2.2-1.5"/>
		<path fill-rule="evenodd" clip-rule="evenodd" fill="#CFCFCF" d="M105,30.8c-0.4,1.9,0.3,2.6,2.2,2.2c0.9,3.1-2.4,1.9-2.9,3.6
			c-1-1.4-2-2.8-5.1-2.2c-0.2-2.8,3.9-2.2,2.2-2.9c1.1-1.6,2.1,0.8,2.9-1.5"/>
		<line fill-rule="evenodd" clip-rule="evenodd" fill="#CFCFCF" x1="104.3" y1="30.1" x2="104.3" y2="30.8"/>
		<path fill-rule="evenodd" clip-rule="evenodd" fill="#CFCFCF" d="M104.3,30.8c0.5-0.2,0.8-0.6,1.1-1.1"/>
		<line fill-rule="evenodd" clip-rule="evenodd" fill="#CFCFCF" x1="104.3" y1="30.8" x2="105" y2="30.8"/>
		<path fill-rule="evenodd" clip-rule="evenodd" fill="#CFCFCF" d="M1028.5,75.2c1.4-0.3,1.1,3.3-0.7,2.2c0-0.5,0-1,0-1.5
			C1028.4,76,1028.4,75.6,1028.5,75.2z"/>
		<path fill-rule="evenodd" clip-rule="evenodd" fill="#CFCFCF" d="M1006.7,90.5c2.7,0.6,0.8,3.2-1.5,2.9
			C1005.6,92.3,1006.3,91.5,1006.7,90.5z"/>
		<path fill-rule="evenodd" clip-rule="evenodd" fill="#CFCFCF" d="M954.8,83.7c0.1-1.2,2-0.3,2.9-0.7c1.7-0.8,0.9-3.5,3.6-2.9
			c-0.4-1.5-1.8-2.1-1.5-4.4c0.6-2.3,1.8-4,3.6-5.1c-1.9-2,0.8-2.7,0.7-4.4c-0.1-2.9-2.4-5.1-2.2-8c0,0.1,0.4-2.9,0.7-3.6
			c0.3-0.6,1.4-0.4,1.5-1.5c0.2-2.3-0.9-4.9-0.7-7.3c0.2-2.1,1.5-3.1,2.2-5.1c0.5-1.4,0.2-3.4,0.7-5.1c0.4-1.4,1-2.5,1.5-3.6
			c0.4-1,1.1-2.6,1.5-3.6c0.4-1,0.5-3.3,2.2-2.9c1.9-0.6,0.9,1.3,1.5,2.2c0.8,1.3,2.3,1.5,2.9,2.9c3.9-1.4,6.5-4.1,9.5-6.5
			c1.3,0.2,3.4,0,5.1,0.7c0.6,0.3,0.9,1.8,1.5,2.2c0.6,0.4,2.4,0.2,2.9,0.7c0.5,0.6,1.3,3.9,2.2,6.5c1.6,4.8,2.9,10.1,5.1,16
			c0.7,1.8,2.1,4.5,2.2,8c1.3,1.6,4.3,1.5,7.3,1.5c0,4.9,2.2,7.5,4.4,10.2c0.7-0.7,1.5-1.4,2.2-2.2c1.7,0.5,1.9,2.4,3.6,2.9
			c0,1.4-2,0.9-1.5,2.9c0.5,1.4,2.4,3.2,2.9,0.7c1.7,1.5-2,6.8-4.4,4.4c-1,2.4-2.3,4.5-4.4,5.8c-0.8-0.2-0.5-1.4-1.5-1.5
			c-2,0.2-0.8,3-0.7,2.9c-0.6,1.2-3.3,0.4-2.2,2.9c-1.3-0.7-3.6-0.3-4.4-1.5c-1.2,2-1.6,3.8-3.6,1.5c0,1.9,0,3.9,0,5.8
			c-4.5,1.3-2.2-4.1-4.4-5.1c-2.1-1.4-1,2.1-1.5,2.9c-0.1,0.2-1.4-0.2-1.5,0c-0.4,1.2,0.7,2.2,0.7,3.6c0,2.5-1.5,5-0.7,8
			c-1.5,1.4-6.2-0.4-5.1,3.6c-0.8,2.4-0.8-2-0.7-2.9c-2.2,1-4.1,4.5-5.1,0.7c-1.9,2.3,0.7,4.6-0.7,7.3c-1,0.5-0.4-2.1-0.7-2.2
			c-0.6-0.1-3.1,1.5-3.6,3.6c-0.3,1.2,0.2,3.2,0,4.4c-0.2,1.2-1.4,1.7-1.5,2.2c-0.3,1.3,1,1.6,0.7,2.9c-0.3,1.1-1.9,2-2.2,2.9
			c-0.8,2.5,0.3,5.1-0.7,5.8c-1.9,0.2-2.4-1-2.2-2.9c-2.5,0-3.2-1.7-4.4-2.9c0.6-4.3-2.4-8-3.6-11.6c-0.8-2.6-0.8-4.5-1.5-7.3
			c0-0.2-0.7,0-0.7-0.7c0-0.3,0.6-1,0.7-0.7c-0.3-0.9-1.8-1.4-2.2-2.2c-0.3-0.7-0.7-2.8-0.7-2.9C959.1,95.7,957.5,89.3,954.8,83.7z"
			/>
		<path fill-rule="evenodd" clip-rule="evenodd" fill="#CFCFCF" d="M783.8,332.6c-1,0.3-2,0.6-2.9,1.1l2.5-0.4
			c3.1,0.5,5-0.5,6.5-0.7c7.9-1.2,19-2.1,23.3-4.4c-0.3,0.1-0.9-0.6,0-0.7c0,0,1.3,1.4,2.2,1.5c2.7,0.3,7.5-0.4,10.2-0.7
			c10.9-1.5,20.8-4.5,31.3-5.8c3.2-0.4,4.1-1.1,5.8-1.5c5.1-1,8.3-0.7,12.4-1.5c9-1.7,18.7-4.3,26.2-5.8c2.2-0.4,4.9-0.2,6.5-0.7
			c0.5-0.2,0.6-1.3,1.5-1.5c-0.1,0,0.8,0.8,1.5,0.7c1.3-0.1,2.3-1.1,3.6-1.5c2.2-0.6,3,0,4.4-1.5c-0.2,0.2-1-0.3-0.7-0.7
			c0.3-0.6,1.2,0.2,1.5-0.7c0.1-0.6-0.6-2.5-0.7-2.9c0.1,0.5-0.7,0.9-0.7,0.7c-0.2-1.4,1.4-1.7,0-2.9c-2.7-0.6-3.9,1.3-5.1,0
			c-0.1,3,2.5,2.2,2.9,2.9c-1.5,1.5-3.2-1-5.1-1.5c-1.1,0.6-1.1,2.3-2.9,2.2c-0.6-2.3-0.6-1.5,0.7-2.9c-2.2-1.8-3.9,1.4-5.1-1.5
			c0.7,0,0.9-0.6,1.5-0.7c-1.8,1.8,1.1,1.3,1.5,0.7c-1.1-0.6-2.3-1.1-2.2-2.9c-2,0-4.4,0.1-5.8,0c0.7,0-1.9-0.3-1.5,0
			c-0.1-0.1,0.1-1.4,0-1.5c-1.5-0.3-3.2,0.9-5.1-0.7c2.2-1,6.2-1.7,7.3,0c0.1-0.9-0.1-2.1,0.7-2.2c0.8,1.3,2.2,3,4.4,2.7l2.5,1.7
			c1.5,1.3,2.5,2.5,4.7,1.5c1.1-2.9-2.1-3.4-3.6-3.3l-2.1-1.2l-1.6-0.6c-1.4-2.3-4.5-2.8-5.8-5.1c1.5,1.5,1.4-0.3,2.9-0.7
			c0.7,2.8,2.7,2.2,3.6,2.9c-0.4-0.3-0.8,0.3-0.7,0.7c0.3,1.7,2.7-1.3,2.9,1.5c1.5-1.5-0.3-1.4-0.7-2.9c0.7,0,0.9-0.6,1.5-0.7
			l-0.7-1.5c0-0.9-0.9-1-0.7-2.2c-1,0-1.9,0-2.9,0c-0.3-2.5-2.2-2-3.6-2.9c-1.8-1.2-3.9-4.2-5.1-5.1c0.3,0.2-1.3,0.8,0-0.7
			c-3.1-0.3-0.9,2-2.2,2.2c-1.5-1.5,0.3-1.4,0.7-2.9c-1.3-0.4-3-0.4-3.6-1.5c1-0.9,2.7-0.9,3.6,0l0.8-0.4h0.6
			c0.2,1.7,2.5,1.4,2.2,3.6c2.5-1.7,1.7,0.9,2.9,0.7c2.3-0.4,1,1.6,4.4,3.6c-1-0.6,2.6,0.6,2.9,0.7c0.3-3-0.7-4.7-1.5-6.5
			c-4.4,1.1-4.7-6.5-10.3-3.5l-1.3,0.5c-0.2-1.7-2.5-0.9-2.2-3.2c-2.7,0.9-5.7,3.6-7.3,0c1.4-1.8,0.5-5.8,1.5-8
			c1.5,1.5,1.4-0.3,2.9-0.7c0-1.7-1.3-2.1-0.7-4.4c-2.2-1.9-3.6,1.2-4.4,0c0.8-0.2,1.1-0.8,1.5-1.5c-2.7-0.4-6.7-0.1-7.3-4.4
			c-0.3,1.1-0.9,0.1,0-0.7c-3.7,1.3,0-0.5-2.9-0.7c-1.4,1.2-1.2,4.2-2.9,5.1c0-1.9-1.9-0.9-2.9-1.5c0.3,0.2,1.1-0.5,0.7-0.7
			c-0.8-0.6-4.1-1.3-6.5-2.9c-1.3,1.9,0.1,4.7-0.7,7.3c-0.1,0.2-1.3,0.5-1.5,0.7c-0.5,0.8-0.4,3.3-0.7,3.6c-0.6,0.8-2.3,0.7-2.9,1.5
			c-1.4,1.8-0.8,5.1-4.4,3.6c0.1,2,1.4,2.5-0.7,1.5c0.4,4.3-0.8,6.9-2.9,8.7c-3.6,0.7-4.9-0.9-6.5-2.2c-0.2,1.7,0.1,2.8,0.7,3.6
			c-3.5,0-2.9,7.9-2.9,8c-0.1,0.2-1.4-0.2-1.5,0c-0.4,0.7,0.2,2.1,0,2.9c-0.3,1.2-1.2,2.3-1.5,2.9c0.6-1.6-1.4,1.3-1.5,1.5
			c-0.3,0.8-0.7,1.1-0.7,2.2c0,2.7,1.3,2.1,1.5,3.6c0,0-1.4-0.1-1.5,0c-0.6,0.9,0.6,2.6,1.5,3.6c-1.6-1.7-3.4,0.7-5.1,1.5
			c-0.6,0.3-1.6-0.3-2.2,0c-1.4,0.7-2,3.6-4.4,2.2c-1,3.4-3,3.1-4.4,3.6c-2,0.8-3.8,1-5.8,0c-0.2,2-2.3,2.1-2.9,3.6
			c-0.8-1.5-2.4-0.7-3.6-0.7c-2.1-0.1-0.2-0.9-0.7-1.5c0.2,0.2-4.3-0.9-4.4-3.6c-3.2-0.3-1.9,3.9-4.4,4.4l-1.5,1.5
			c-2.5,0.9-3.4,3.4-5.8,4.4c0,1,0.3,1.6,0.7,2.2c-4.3,0.5-2.8,5.7-5.1,6.5c0-0.7,0.6-0.9,0.7-1.5c-2.8,0.4-2.6,3.7-5.1,4.4
			L783.8,332.6l-0.4-0.7"/>
		<path fill-rule="evenodd" clip-rule="evenodd" fill="#CFCFCF" d="M916.5,288.2c-0.1-2.9,1.1-7,2.9-8.7c0.2-1.5-0.1-2.3-1.5-2.2
			c0.6-1.8,2.5-2.3,3.6-3.6c3.9,1.1-2.4,6.9,0,10.2c-1.3,1.4-2.6,2.8-3.6,4.4"/>
		<path fill-rule="evenodd" clip-rule="evenodd" fill="#CFCFCF" d="M662.7,356.6c2.2,0.1,0.6-2.8,0.7-2.9c0.1-0.1,1.4,0.2,1.5,0
			c0.4-1.1-1.3-2.5,0.7-3.6c9.4-0.2,18.1-1.3,26.9-2.2c-0.4-1.1,0.8-3.8-0.7-3.6c3-0.2,7.8-0.9,12.4-1.5c9.3-1,19.2-1.5,29.1-2.2
			c5.3-0.4,10.6-1.8,16-2.2c6.6-0.5,13.7-0.6,20.4-1.5c3.6-0.5,7.4-1.8,10.9-2.2c10.5-1.1,22-2.1,31.3-5.1c1.6,0.7-1,3.3,0,5.8
			c-3,0.7-3.7,3.6-4.4,6.5c-4.3-1.9-7.1,2.1-8.7,5.1c-2-0.4-1.1-2.1-2.2-2.2c-2.1-0.2-2.4,4.6-4.4,2.9c-0.8,1.4-0.9,3.4-1.5,5.1
			c-3.5-1.1-6.3,4.2-8.7,6.5c-6.3-0.2-9.8,2.3-10.2,8c-1.5,0.4-2.1,1.8-4.4,1.5c0,2.2,0,4.4,0,6.5c-19.2,1.6-38.3,4.4-57.4,5.8
			c-13.6,1-26.8,3.5-40.7,4.4c-5.2,0.3-10.6,0.4-16,0.7c0.2-1.5,1.9-1.5,2.9-2.2c-1.2-3.4-1.2-5.3,0.1-8c0,0-1.4-1.1-1-1.5
			c1.9-1.7,2.3-0.9,3-2.2c0.9-1.5-0.6-2.5,0-3.6c0.1-0.2,1.9-0.5,2.2-0.7c0.6-0.6,0.6-2,1.5-2.9c1.5-1.6-0.6-1.3-0.7-2.9
			c-0.2-2.3,2.8-2.9,2.2-5.1"/>
		<path fill-rule="evenodd" clip-rule="evenodd" fill="#CFCFCF" d="M920.1,352.2c0.1,1.3-0.9,1.5-0.7,2.9c-1.8,0.3-1.6-1.3-3.6-0.7
			c-1.7,2.2-4.2,3.5-8,3.6c-1.3,1.1-1.7,3.1-2.9,4.4c-0.4-0.8-0.5-2.4-2.9-2.9c3.2,6.7-6.1,8-5.8,16c-1-0.3-1.1-1.3-2.2-1.5
			c0,2.4,1.2,3.6,0.7,6.5c-3.6,1-7.8,1.4-10.9,2.9c-1.2-0.5-1.6-2-2.9-2.9c-0.9-0.6-2.7-0.8-3.6-1.5c-1-0.7-1.9-2.2-2.9-2.9
			c-0.6-0.4-1.6-0.3-2.2-0.7c-0.4-0.3-0.4-1.2-0.7-1.5c-0.7-0.5-1.5-0.2-2.2-0.7c-1-0.8-2.8-2.5-4.4-3.6c-2.3-1.6-5.2-4.1-6.5-4.4
			c-1.4-0.3-6.4,1-9.5,1.5c-3.6,0.6-7.3,1.6-11.6,2.2c-0.2-2.7-1.7-4.1-2.9-5.8c-7.5-1.8-13.4-0.1-20.4,0.7c-3.1,0.4-6.2,0-8.7,0.7
			c-1.1,0.3-2.7,1.6-3.6,2.2c-0.8,0.5-1.6,0.2-2.2,0.7c-0.9,0.9-1.6,1.3-3.6,2.2c-1.1,0.4-0.8,0.1-1.5,0.7
			c-2.9,2.8-12.7,2.6-18.9,3.6c-2.3,0.4-4.8,0.9-7.3,1.5c0-1.9,0-3.9,0-5.8c2.3,0.3,2.8-1,4.4-1.5c-0.5-2.2,1.3-2.1,0.7-4.4
			c1.9-2.9,6-2.3,9.5-4.4c1.5-0.9,2.6-2.9,4.4-4.4c0.9-0.7,1.3-1.6,3.6-1.5c1.4-2.7,3.3-4.9,5.1-7.3c1.4,0,0.9,2,2.9,1.5
			c2.5-1.4,3.9-6.9,8-4.4c2.6-1.7,2-6.7,5.8-7.3c0-2.4,1.2-3.6,0.7-6.5c8.3,0,14.8-0.8,23.3-2.2c9.5-1.5,21.2-3.6,32.7-5.8
			c5.2-1,12.6-3,19.6-4.4c4.5-0.9,9.1-1.3,13.1-2.2c3.9-0.9,6.2-2,10.9-2.9c5.8-1.1,7.6-0.3,10.2,5.1c-1-0.3-1.1-1.3-2.2-1.5
			c0,1.2,0.5,1.9,1.5,2.2c-1.8,1.9-3.3-3-5.8-0.7c0.2,1.7,3.4,0.4,2.9,2.9c-1.9,0.5-2.2,0.2-4.4,1.5c-0.3,0.9-0.8,2.1-2.2,3.6
			c-0.8-0.6-1.9-1-3.6-0.7c-0.8-1.7-0.5-4.4-1.5-5.8c-2.8,3.5,1.7,6.1,1.5,9.5c2.2,0.3,3.2-0.3,4.4-1.5c1.5-1.5,0.7,0.7,2.9,0
			c1.6-0.5,2.7-1.7,5.1-2.2c0.6,1.9,1.1,3.3-0.7,4.4c2.2,1,0,1.8,1.5,3.6c3.4-0.4,1.3-5.3,2.2-6.5c1,0.1,2.1,0.1,2.2-0.7
			c2,0.9,2.2,3.6,2.2,6.5c-0.7,0-1.5,0-2.2,0c-0.5,1-1.5,5-2.9,7.3c-2.4-0.2-6.3,1-5.8-2.2c-0.9,0.1-0.6,1.3-0.7,2.2
			c-2.7-0.1-1.4-2.4-2.2-2.9c-2.5-0.4-0.8,3.5-2.9,3.6c-3.1,0.5-5.5-2.1-7.3-0.7c2.3,2.8,7.8,2.4,11.6,3.6c0.5,2-1.5,1.4-2.2,2.2
			c-0.9,2.4,2.4,0.6,1.5,2.9c-1.3,0.7-2.3,1.6-2.9,2.9c-2-1-3.9-2-5.8-2.9c-1.2,1.3,1.5,3.8,3.6,4.4c2.8,0.7,6-2.3,8-0.7
			c-1.1-2.2,0.7-2.3,0.7-0.7"/>
		<line fill-rule="evenodd" clip-rule="evenodd" fill="#CFCFCF" x1="919.4" y1="350.8" x2="919.5" y2="351.6"/>
		<path fill-rule="evenodd" clip-rule="evenodd" fill="#CFCFCF" d="M919.5,351.6c0.3-0.1,0.9-0.4,1.7-0.5"/>
		<line fill-rule="evenodd" clip-rule="evenodd" fill="#CFCFCF" x1="919.5" y1="351.6" x2="920.1" y2="352.2"/>
		<path fill-rule="evenodd" clip-rule="evenodd" fill="#CFCFCF" d="M847.4,425.7c-0.6-0.3-1.3-0.6-1.5-1.5c-1.5,2.1,0.9,6.4,2.9,7.3
			c-0.3,1.1-0.7-0.2-1.5,0c-0.7,0.2-1.1,2.2-1.5,0.7c-1.9,0.2,1,1.3,0,2.9c-3,0.8-2.8-1.5-5.1-1.5c1.2-5.3-5.6-7-2.2-10.2
			c-4.3,3.3-0.6-0.8-4.4,0.7c-1.1-1.2-0.3-2.4-0.7-3.6c-0.5-1.5-1.6-1.7-2.2-2.9c-0.3-0.6,0.6-1.7,0.7-1.5c-0.6-0.9-2.5-1.8-3.6-2.9
			c-0.8-0.8-1.9-0.1-2.9-0.7c-1.1-0.7-0.6-3.5-2.9-2.2c1.4-1.4-1.3-2.3-1.5-2.9c-0.1-0.5,1-0.9,0.7-1.5c-0.3-0.5-1,0.7-0.7,0.7
			c-0.3-0.1-2.4-4.3-2.2-2.2c-0.1-0.6,0.9-1.3,1.5-1.5c-0.3-1-1.3-0.1-1.5,0.7c-0.8-1.4-3.1-0.5-4.4-1.5c-0.4-0.3-0.4-1.8-0.7-2.2
			c-0.5-0.6-2.5-2.7-3.6-3.6c-0.4-0.4-1.7,0.3-2.2,0c-2.3-1.3-2.8-4.3-5.1-5.1c0.8-2.3,0.2,0-1.5-2.2c-0.1-0.1-1.5-1.6-1.5-1.5
			c-0.2-1.2,0.9-1.3,0.7-2.2c-0.1-0.3-0.8,0.4-0.7,0.7c-0.1-1.7-1-1.9,0.7-2.2c-0.3-1-1.3-0.1-1.5,0.7c-1.5-2.4-7.4-0.4-7.3-4.4
			c-1.4,1.5-3.1,0-3.6-1.5c0.9-2.3,1.6-4.7,4.4-5.1c-1.9-1.9,2.2-1.5,2.2-3.6c4.4-0.8,5.7-0.3,5.8-2.9c0.8-0.6,1.3,0.7,1.5,0.7
			c1,0,0.2-1.2,0.7-1.5c0.1,0,3,0.9,2.9-1.5c3.9,0.2,8.3-0.9,13.1-1.5c5.2-0.6,11.8-2.1,13.1,1.5c0.7,0,0.6-0.9,0.7-1.5
			c2.5,0.9,3.1,3.7,3.6,6.5c1.4-0.4,3.3-1.4,5.1-1.5c0.7,0,1.5,0.7,1.5,0.7c0.8-0.1,1.7-1.3,2.2-1.5c2.2-0.6,5.5-0.3,8-0.7
			c1.6-0.3,3.7-0.7,5.1-0.7c1,0.3,0.1,1.3-0.7,1.5c0.4,1.5,1.4-1.1,2.9-0.7c0,0,0.6,2.1,0.7,2.2c0.4,0.3,1.7-0.2,2.2,0
			c0.3,0.1,1,1.2,1.5,1.5c1,0.6,1.9,0.7,0.7,2.2c2.5-0.8,1.2-0.7,4.4,1.5c0.7,0.5,2.7,1.3,2.9,1.5c0.5,0.5,0.2,1.8,0.7,2.2
			c1,0.7,3.5-0.2,1.5,2.2c0.6-0.6,1.6-0.8,2.9-0.7c0.1,2.3,5,2.1,2.9,4.4c0.6-0.4,1.2-0.8,2.2-0.7c-0.6,2.5-2.9,2.5-4.4,4.4
			c-0.5,0.6-0.2,0.9-0.7,1.5c-0.9,0.9-1.4,4.1-2.2,5.8c-0.2,0.3-1-0.4-0.7-0.7c-0.8,0.1-0.4,0.7,0,0.7c-0.9,0.2-2.9,2.8-2.9,1.5
			c-1,0.2,1.3,5.5-2.2,5.1c0.6,1.9,3.2-1.4,4.4,0.7c-0.2,1.7-1.9,1.7-2.9,0.7c0.4,1.4,1.4,2.7,0,2.2c-0.9-0.3,0.1,1.4,0,2.2
			c-1.9,0-4.8,0.4-2.9-1.5c-3.2,1,0.8,3-1.5,2.2c-0.7-0.3,0.5,2.4,0,2.9c-0.6,1.1-2.3,1.1-2.2,2.9c-2.1,0.1-1.4-2.5-4.4-1.5
			c0.5,1.9,1.4,3.5,2.2,5.1c-1.9-0.8-2.5,3.1-3.6,0.7c-0.8,0.1-0.4,0.7,0,0.7c-0.5,2.7-3-0.8-2.9,2.9c-3.7,1.4-6.9-1.1-8,2.9"/>
		<path fill-rule="evenodd" clip-rule="evenodd" fill="#CFCFCF" d="M778,477.8c-1.8-0.3-3.9,1.7-7.6,0.9c-0.9-2.6-2.6-5.8-4.4-8.7
			c-0.5-0.8-1.2-1.3-1.5-2.2c-0.5-2,0.4-5.5,0-8c-0.4-2-2.1-3.7-2.2-5.1c-0.4-4.1,0.5-8.8,2.9-11.6c-1.3-1.8-1.2-4.6-2.2-6.5
			c-0.4-0.8-1.7-0.8-2.2-1.5c-0.5-0.7-2.3-4.9-2.9-6.5c-2.3-6.1-3.9-14.7-5.8-21.8c-2.8-10.2-5.8-19.3-8.1-28
			c15.6-2.3,32-2.9,46.7-6.2c-1.1,2.1-2,4.3-3.6,5.8c0.4,4.2,6,3.2,7.3,6.5c2.2-0.5,1.4-0.5,3.6,0c2.1,3.3,4.9,9.1,8,11.6
			c0.6,0.5,1.6,0.2,2.2,0.7c1.2,1-1.1,1.5,2.2,0.7c-0.3,1.4,2.5,1.4,2.2,2.9c0,0-1.2,0.2-0.7,0.7c0,0,1-0.5,1.5,0
			c1.5,1.7,2.7,2,5.8,3.6c1.6,5.4,6.1,8,10.9,10.2c0.3,3.3,3,4.3,2.9,8c0.6,1.8,3,1.9,4.4,2.9c-1.4,1.3,0.4,1.2,0,0.7
			c2.4,2.7,2.5,5,3.6,8.7c2.4-0.4,3.4,0.5,5.1,0.7c-0.4,2.8-2.5,4.7-4.4,2.2c-0.4,2.4,0.5,3.4,0.7,5.1c-3.8-1.3-2.5,7.5-1.5,8.7
			c-1.6,0.4-1.8,1.2-2.9,1.5c-0.2,0.1-1.5-1.1-2.2,0c0.6,1.6,3.8,0.6,4.4,2.2c-0.1,2.7-1.1,1.8-2.9,1.5c1.1,5.8-0.6,7.4,1.5,11.6
			c-3.3-0.1-6.8,0-8-2.2c-1.1,1.4-2.4,2.5-3.6,3.6c1.1,1.9,2.4,6.3,0.7,8.7c-2.8,0.1-1.5-3.8-3.6-4.4
			C808.9,475.9,793.5,477.4,778,477.8z"/>
		<path fill-rule="evenodd" clip-rule="evenodd" fill="#CFCFCF" d="M718,493.3c-1-0.1-2.2,3-2.9,0.7c-2-0.5,0.5,3.4-1.5,2.9
			c-2.4-0.5-1.7-4.1-5.1-3.6c0.5-3.9-0.4-6.4-2.9-7.3c-1.5,1.9-1.5,5.2-1.5,8.7c-1.7,0-3.4,0-5.1,0c-1.5-5.9-1.4-12.4-2.2-18.9
			c-1-8.1-3.9-15.3-2.9-25.5c1.9-18.1,0.5-42.2,1.5-62.5c1.2-2.7-3.4-3.3-1.5-4.4c17.1-0.6,32.7-2.6,48.7-4.4
			c2.8,11.5,7.5,24.1,10.9,36.4c1.2,4.2,1.5,8.6,2.9,12.4c0.7,1.9,1.8,4.8,2.9,6.5c0.7,1.1,2.4,1.7,2.9,2.9c0.7,1.5-0.9,4.4,1.5,5.1
			c-1.4,2.4-1.6,3.9-2.2,7.3c-0.7,4.3-0.3,6.5,2.2,10.2c-0.1,2.3,0.5,5.3-0.7,6.5c0.1,3.1,2.8,3.5,2.9,6.5
			c-11.3,0.6-24.9,3.1-37.1,4.4c-5.8,0.6-14-0.9-16,3.6c0.5,3.4,3.3,4.4,5.1,6.5C717,489.7,718.3,490.1,718,493.3z"/>
		<path fill-rule="evenodd" clip-rule="evenodd" fill="#CFCFCF" d="M639,415c0.1-0.8-0.2-1.3-0.7-1.5c0.7-1.3,2.5-1.3,3.6-2.2
			c-2.8-5.8,7.7-8.2,5.1-13.8c1-1.6,2.1-1.6,2.2-2.9c0.2-3.3,0.7-2,2.2-4.4c0.3-0.5,1-1.1,0.7-2.2c13-1.6,27.2-1.9,40-3.6
			c-0.3,1.6,1,1.4,2.2,1.5c-0.9,18.3-0.6,36.8-1.5,55.3c-0.9,18.4,3.4,35.6,5.1,51.8v1.3c-1.6,0.4,0.9,1.1-0.7,2.2
			c-1.9-0.7-3.5-2.1-4.4,0c-2.1-0.5-2.4-1.4-4.4-1.5c-3-0.1-6.1,3.1-9.5,2.9c-1.4,0.8-1.5,2.8-2.9,3.6c-3.2,0.3-2.5-3.3-3.6-5.1
			c-0.6-2.1-2.7-2.7-3.6-4.4c-0.6-4,1.4-5.4,1.5-8.7c-11.8-1.6-24.8,1.9-37.8,1.5c-1.9-2.8-1.7-6.7,1.5-5.8c-0.9-1-0.6-3.3-0.7-3.6
			c-0.4-1.2,0.2-2.5,0.7-3.6c0,0.1,1.2-0.3,0.7-0.7c-2.1-1.7,3.6-2.9,1.5-5.8c2-1.4,3.7-3.1,5.1-5.1c-0.4-2.1,2.3-4.1-1.5-3.6
			c1.5-1,2.5-2.3,4.4-2.9c-0.3-2.1-2.5-2.4-3.6-3.6c1.6-1.5-0.6-2.4,0.7-3.6c-0.2-1-1.8-0.6-2.9-0.7c0.7-0.7,1.4-1.5,2.2-2.2
			c-0.1-0.9-1.3-0.6-2.2-0.7c-0.3-2.3,0.9-3,2.2-3.6c-0.2-1.5-2.7-0.7-2.9-2.2c-1.1-3,2.6-2.8,1.5-6.5c-0.1-0.3-1.4-1.3-1.5-1.5
			c-0.3-1.4,0.9-2.4,0.7-2.9c-0.7-2-2.7-1.8-2.2-3.6c1.1-0.9,1-2.9,2.9-2.9c-0.1-0.9-1.3-0.6-2.2-0.7c0.1-1.4,2.4-0.5,2.2-2.2"/>
		<path fill-rule="evenodd" clip-rule="evenodd" fill="#CFCFCF" d="M862.7,514.4c1,0.3,1.1,1.3,2.2,1.5
			C864.6,517.6,862,515.9,862.7,514.4z"/>
		<path fill-rule="evenodd" clip-rule="evenodd" fill="#CFCFCF" d="M870.3,598.7c1.1-0.3,2.7-0.4,2.9-1.8"/>
		<line fill-rule="evenodd" clip-rule="evenodd" fill="#CFCFCF" x1="873.2" y1="596.9" x2="872.9" y2="597.3"/>
		<line fill-rule="evenodd" clip-rule="evenodd" fill="#CFCFCF" x1="824.1" y1="536.9" x2="823.4" y2="536.6"/>
		<line fill-rule="evenodd" clip-rule="evenodd" fill="#CFCFCF" x1="823.4" y1="538.7" x2="824.1" y2="538.4"/>
		<line fill-rule="evenodd" clip-rule="evenodd" fill="#CFCFCF" x1="822.7" y1="538.4" x2="823.4" y2="538.7"/>
		<line fill-rule="evenodd" clip-rule="evenodd" fill="#CFCFCF" x1="823.4" y1="536.6" x2="822.7" y2="536.9"/>
		<path fill-rule="evenodd" clip-rule="evenodd" fill="#CFCFCF" d="M823,537.7c-0.6-6.2,2.4-14-0.4-21.1c-2.6-1.3-3.2-4.6-5.1-6.5
			c-1.8-0.9-3.5,1.6-3.6,0c-3.9-1.5-5.1-5.6-9.5-6.5c1.3-3.7-2.3-3.4-4.4-5.1c-1.2-1-1.1-2.8-2.2-3.6c-0.5-0.4-5.9-2.7-7.3-2.9
			c-1.6-0.3-4.4-0.4-5.8,0c-1,0.3-1.1,1-2.2,2.2c0.1-0.1-2.2,2-2.2,1.5c0,0.4,1.7,1.2,2.2,0.7c-1.1,1.1-2.3,0.8-3.6,1.5
			c-2.2,1.1-3.3,3-4.4,4.4c-1.1,0.9-1.6-1.4-1.5-1.5c-1.4,0.3-1.5,2.2-2.9,2.9c-1.9,1-4-0.5-5.1,1.5c-1.1-3-2.1-6.1-5.8-6.5
			c0.7-1,1.2,0.3,2.2-1.5c-1.7-1.4-3.8-2.5-6.5-2.9c0.9-1.3,2.3-2.1,2.9-3.6c-0.1-2.3-2.3,1.3-2.9,1.5c-1.3,0.3-3.7-2.1-3.6,1.5
			c-2.5-0.2-3.5-1.8-6.5-1.5c3.8-3.5-3.7-3.8-5.8-4.4c-1.9,2.9-6.5,3.2-10.2,4.4c0-1.2-1.2-2.4-1.5-5.1c-2.2-0.5-0.7,2.4-1.5,2.9
			c-0.3,0.1-0.9-1.4-1.5-1.5c-1.6-0.1-0.6,2.2-2.2,4.4h-1.5c-0.5-1.2-3.9-3.3-1.5-5.1c-0.9-2.7-4.9-2.3-5.1-5.8
			c1-4.5,5.7-2.5,8.7-2.9c13.3-2,29.8-3.6,43.6-5.1c1,2,2,3.9,2.9,5.8c18.9,0,38.2-3.5,55.3-2.9c-0.1,1.8,0.4,3,1.5,3.6
			c6.3,0.4,0.6-8.7,2.9-10.9c2.1-1,5.8,1.7,10.2,0.7c0.8,2.2-0.4,5.4,2.9,6.5c0,4.6,2.6,8.4,4.4,12.4c3.9,8.6,9.1,17.6,16,24
			c-0.3,1.1-0.9-0.3-2.2,0c-0.6,3.4,1.3,6.5,2.9,9.5c1.4,2.6,3.4,5.5,5.1,8c1.3,1.9,2,3.3,3.6,5.1c2.3,2.4,3.4,8.2,6.5,10.9
			c0.1,1,0.1,2.1-0.7,2.2c3.7,1.6,4.6,2.8,6.5,8.7c1.3,4.1,2.8,17.5,1.5,23.3c-0.4,1.8-2,3.4-2.2,5.1c-0.2,1.7,0.9,3.5,0.7,5.1
			c-0.2,1.8-2,2.6-1.5,4.4c-4.4-0.7-5.3,5-9.5,2.2l-0.4-0.4l-0.4,0.4c-0.1-2.3-1.6-3.2-4.4-2.9c-1.8-2.4-3.8-4.7-5.8-7.3
			c-1.5-2-1.6-3.5-4.4-4.4c-2.1-0.6-4,0.5-5.8-0.7c-1.5-2.6-3.2-5-3.6-8.7c-0.2-1.5-1.9-1.5-2.9-2.2c0.2-2.7,1.7-4.1,2.9-5.8
			c-3.5-0.6-3,2.8-4.4,4.4c-2.4-1-2.9-6.9-1.5-9.5c-0.9-1.3-3,1.9-5.1,0c-2,0.9,2.3,1.5,1.5,3.6c-5.2-1.1-6.9-5.7-8.7-10.2
			c-0.4-2.3-3.4-1.9-3.6-4.4c2.5,0.2,1.6-3.2,2.2-4.4c0.6-1.3,2.8-2,2.2-3.6c-0.9-4-3.5-1.5-6.9-3.6l-0.4,0.7
			c1.4,0.3,0.1,3.3,2.9,2.2c-0.6,0.6-0.8,1.6-0.7,2.9c-2.7,0.8-2.1-1.8-4.4-1.5c-0.6-2.1,1-1.9,0.7-3.6L823,537.7z"/>
		<path fill-rule="evenodd" clip-rule="evenodd" fill="#CFCFCF" d="M638,438c1.8,0.1-0.2,1.6,0,2.9c0.1,1,1.5,2.1,1.5,2.2
			c0,0.9-1.7,1.3-1.5,2.2c0.2,0.8,1.3,0.9,1.5,1.5c0.2,0.6-0.3,1.6,0,2.2c0.7,1.4,1.9,2.3,2.9,3.6c-0.5,1.9-3.3,1.5-3.6,3.6
			c0.5,0.7,1.3,1.1,2.2,1.5c-0.2,0.8-4.1,2.1-0.7,2.2c-1.4,2-3.1,3.7-5.1,5.1c1.3,2.8-3,6-2.9,7.3c0.1,1.2,0.8,1.6,0.7,2.9
			c0,0.1-1.4-0.1-1.5,0c-0.7,0.7,1.3,2,0.7,2.9c-0.6,0.4-1.2,0.8-2.2,0.7c0.8,2.4,2.2,5.8,0,7.3c13.1-1.2,27-1.6,40-2.9
			c-1,1.9-1,4.8-2.2,6.5c1.4,4.8,4.3,6.9,6.5,11.6c-0.9,2.5-2.2-0.4-3.6-0.7c-1.1-0.3-2.6,0.4-3.6,0c-0.9-0.3-2.6-3.5-5.1-2.9
			c-2.7,1.5-4.5,3.7-5.1,7.3c3.5,3.8,12.1-0.4,13.8-0.7c2.6,1.2-1.8,1.5-1.5,2.9c1,1.7,3.2,2.1,5.1,2.9c2.1-0.6,0.5-4.9,3.6-4.4
			c-0.8,3,1.5,2.8,1.5,5.1c-3.4-0.3-4.9,1.2-3.6,3.6c-3.5-0.3-0.6,1.3-2.9,2.2c-0.8,2.7,3,1.9,4.4,2.9c0.4,0.3,0.2,1.9,0.7,2.2
			c0.3,0.2,1.3-1.1,2.2-0.7c0.4,0.2,1.6,2.5,4.4,1.5c1.4,1.7,3,3.1,1.5,5.8c-1.8-0.4-2.7-1.7-3.6-2.9c-0.7,0.5-0.8,1.7-2.2,1.5
			c0.1-1.3-0.9-1.5-0.7-2.9c-2.3,1.1-3.3-1-4.4-1.5c-0.5-0.3-1.7,0.3-2.2,0c-0.4-0.3-0.3-1.8-0.7-2.2c-1.2-1-2.2,0.2-4.4-0.7
			c-1.4-0.6-2.7-2.7-5.1-2.2c-0.8,3.5,2.8,2.6,3.6,4.4c1.2,1.7-1.4,2-1.5,2.2c-0.3,1.1,2.4,3.8-0.7,4.4c-2.4,0.7-1.1-2.3-1.5-3.6
			c-0.8-0.5-3,0.6-3.6,0c-0.7-0.7,0.5-1.8-2.2-0.7c-1.9,0.8-3.1,1.8-3.6,5.1c-2.1,0-6.4-2.7-8-1.5c-0.6-3.7-4.6-4.1-3.6-9.5
			c-1.6-0.3-1.4,1-1.5,2.2c-2.3,0.4-2.6-1.3-5.1-0.7c-0.5-3.1-2.4-4.8-6.5-4.4c0-0.7,0-1.5,0-2.2c-2.6,0.7-4.5,2.3-7.3,2.9
			c-2,0.9,2.3,1.5,1.5,3.6c-1.5-1.1-2.3,1.3-3.6,1.5c-1.2,0.1-4-1.2-5.8-1.5c-3.4-0.4-5.2-1-8.7-2.2c-2-0.7-3.2-2.2-5.8-1.5
			c1.5-2.8,0.1-5.5-1.5-7.3c-0.3,1.9-2.5,5.7-1.5,6.5c-1.5,2.4-6.7,1-9.5,2.2c-1-1.6,1.6-1.7,2.2-2.9c0.5-1-0.3-2.6,0-3.6
			c0.2-0.7,1.3-1.2,1.5-2.2c0.2-2-1.3-3.2-1.5-5.1c-0.1-1.3,0.4-4.6,0.7-5.8c0.4-1.6,2.5-3.2,2.9-5.1c0.7-3.5,0.4-8.6,0-10.2
			c-0.3-1.1-2.4-2-2.9-2.9c-0.8-1.4-0.3-5.5-2.9-5.8c0.7-6.1-2.9-7.8-5.1-10.9c0.5-8.5-0.8-15.2-0.7-23.3
			c13.4-0.2,28.4-1.5,42.2-2.2c4.7-0.3,9.5-0.3,13.8,0C635.3,440,636.6,439.5,638,438z"/>
		<path fill-rule="evenodd" clip-rule="evenodd" fill="#CFCFCF" d="M630,520.9c-1.5,1.6-2.1-0.9-4.4-0.7
			C626.3,518.4,630.1,518.2,630,520.9z"/>
		<path fill-rule="evenodd" clip-rule="evenodd" fill="#CFCFCF" d="M641.6,524.6c0.8,0.2,0.5,1.4,1.5,1.5
			C642.4,528,639.9,525.4,641.6,524.6z"/>
		<path fill-rule="evenodd" clip-rule="evenodd" fill="#CFCFCF" d="M517.3,563.8c-2.2-1-5.8-1-8,0c0.8,1.7,2,0.7,2.9,1.5
			c0.7,0.6,1.2,1.6,2.2,2.9c-0.2,3-2.2,4.1-2.2,7.3c-4.3,1-5.4-1.4-8-2.2c-0.1,2.3,1.9,2.4,1.5,5.1c2.6,0.3,3.5,1.1,5.8,0
			c-0.9,2-0.9,5-2.9,5.8c-1.5,3.3,1.6,4.4,2.2,6.5c0.6,2,0.2,4.5,0.7,6.5c0.4,1.7,1.8,2.8,2.2,4.4c0.6,2.6-0.6,5.6,1.5,7.3
			c0.3,1.7-3.3-0.4-2.2,2.2c-3.5,0-4.6-4.2-8-5.1c-3.2-0.8-6.4,0.6-10.9,0c-2.6-2-4.3-4.9-9.5-4.4c-0.9-3-4.1-3.6-8-3.6
			c-0.8-0.3-0.3-1.5-0.7-2.2c-0.1-0.2-1.5-0.7-1.5-0.7c-0.6-1.5-0.2-3.6-0.7-5.1c-1.1-3.3-3.2-5.8-5.1-8c-0.5-1.5,0.8-1.9,0.7-2.9
			c0-1.6-1.3-1.8-1.5-2.9c-0.2-1.8,1-3.6,0-5.8c-0.8-2.1-3-2.8-5.1-3.6c-1.8-4-4.8-6.9-6.5-10.9c-0.7-1.3-2.5-1.3-3.6-2.2
			c-0.5-1.7-1.1-2.7-1.5-5.8c0-0.1-0.4-2-1.5-3.6c-0.2-0.3-1.3-0.5-1.5-0.7c-0.2-0.4,0.2-1.1,0-1.5c-0.7-1.2-1-2.4-2.2-3.6
			c-0.6-0.6-0.7-3.3-1.5-5.1c-1.3-3.3-4.1-5.1-6.5-8c-1.1-1.3-3.2-3.6-5.1-5.1c-0.3-0.2-1.1-0.4-0.7,0c-2.4-2.5-2.6-3.9-4.4-5.8
			c-3.1,0.8-7.6,0.4-12.4-0.7c-2.6-0.6-5.5-3.3-7.3,0.7c-2.4-1-5.2,0.4-6.5,2.2c-1.1,1.5-2.2,4.9-3.6,8c-1.2,2.7-4.2,5.3-6.5,7.3
			c-4.1,0.1-7.2-3-10.2-5.1c-1-0.7-1.5-1.8-2.2-2.2c-1.6-0.8-3.6-0.4-5.1-1.5c-3-2.1-4.5-6.6-8.7-7.3c-0.1-4.2-4.9-6.3-3.6-11.6
			c0.4-1.7,0.5-3.2-0.7-5.8c-0.1-0.3-0.4-1.7-0.7-2.2c-0.1-0.2-1.4-0.5-1.5-0.7c-0.3-0.8,0.4-2.2,0-2.9c-0.7-1.2-1.4-2-2.2-2.9
			c-1.1-1.2-2.2-2.6-3.6-3.6c-1.1-0.8-3.1-1-4.4-2.2c-0.9-0.9-1.4-2.6-2.2-3.6c-0.9-1.2-2-1.8-2.9-2.9c-3.1-3.9-5.1-7.4-10.2-9.5
			c-0.1-2.1-1.3-3-1.5-5.1c-1.8-2.8-6.4-2.8-5.8-8c22.9,2.6,46.3,4.6,70.5,5.8c1-0.3,1.1-1.3,2.2-1.5c2-36,4.8-71.3,7.3-106.9
			c18.4,1.4,38.1,1.6,56.7,2.9c0.1,15.8-0.2,31.3-1.5,45.8c3.3,0.8,4.8,3.4,7.3,5.1c3.7,0.5,5.9-0.9,8,0c1.2,1,0.2,4.1,1.5,5.1
			c5.6,0.2,10.6,1,13.8,3.6c2.8-1.7,3-2,7.3-1.5c-0.3,2.3,0.6,3.2,2.9,2.9c-0.2,1.7,0.1,2.8,0.7,3.6c2.7,0,3.3-2.1,5.1-2.9
			c1.8,0.7,3,1.9,3.6,3.6c2.1,0.2,3.7-0.2,4.4-1.5c1.6,0.3-0.1,4,2.2,3.6c1.6,0.1,1.9-2.3,2.9-3.6c0.3-0.4,0.9-0.6,0.7-1.5
			c2.8,1,3.5,3,7.3,1.5c1,2.4,4.1,2.7,5.8,4.4c1.4-1.5,3.6-2.2,5.1-3.6c2.1-0.7,2.2-0.7,4.4,0c1.8-0.4,3-1.4,4.4-2.2
			c1.4,0.8,5.6,3.2,7.3,0c3.1-0.9,5.4,3.4,7.3,4.4c0.6,0.3,1.6-0.3,2.2,0c0.3,0.1,0.5,1.4,0.7,1.5c2.3,0.8,5.7-0.1,6.5,2.9
			c2.1-0.9,4.5-0.9,6.5,0c0.9,11.9,1,24.7,1.5,37.1c1.1,1.8,2.9,2.9,4.4,4.4c-0.4,2.3,1.6,2.8,0,4.4c0.5,0.9,0.8,1.9,1.5,2.9
			c0.5,0.8,1.8,1.5,2.2,2.2c0.3,0.6-0.3,1.6,0,2.2c1.4,2.4,3.2,2.8,2.9,7.3c0,0.1-0.9,0.1-0.7,0.7c0.1,0.5,0.7,2.7,0.7,4.4
			c-3.4,3.6-4.4,11.5-2.2,16.7c-1.6,2.5-7.5,5.9-3.6,9.5c-1.9,1.1-3.3,0.8-5.1,1.5c-2,0.7-3.5,2.5-5.1,2.9c-1.2,0.3-1.3-0.8-2.2-0.7
			c-0.7,0.1-3.3,1.1-5.1,0.7c1-0.9,0.7-3.2,0.7-5.1c-2.6-2-3.2,1.9-4.4,2.2c-1.5,0.3-1.6-2.9-2.9-0.7c0,3.9,1.6,5.5,2.9,9.5
			c-2.4,0.5-2.6,3.2-5.1,3.6c-0.2,6.4-6.5,6.6-9.5,10.2c-2.7-0.6-3.5,0.9-5.8,0.7c-1,0.2-0.6,1.8-0.7,2.9c-1.6,0.3-1-1.3-2.2-1.5
			c0.6,0.1-2.7,1.6-3.6,0.7c-0.1-0.1,0.2-1.4,0-1.5c-1.4-0.5-4,2.4-4.4-1.5c-2.1,0.6,0.4,2.3,0,3.6c-3.2,0.5-1.7-3.7-5.1-2.9
			c-1.8,1.7,4.1,4.6,1.5,7.3c0.6-0.6,1.6-0.8,2.9-0.7c-2.2,3.4-5.1,2.8-7.3,0c-1.7,2.1,1.3,5-1.5,6.5c-1-3.1-4.9,2.4-7.3,0
			c0.8,2.3-0.7,4,2.2,5.1c-0.2-1.2,0.7-1.3,0.7-2.2C521.3,560.1,517,561.5,517.3,563.8z"/>
	</g>
</g>
</svg>
