<?xml version="1.0" encoding="UTF-8" standalone="no"?>
<!-- Generator: Adobe Illustrator 18.0.0, SVG Export Plug-In . SVG Version: 6.00 Build 0)  -->
<!DOCTYPE svg  PUBLIC '-//W3C//DTD SVG 1.1//EN'  'http://www.w3.org/Graphics/SVG/1.1/DTD/svg11.dtd'>
<svg id="Layer_1" xmlns="http://www.w3.org/2000/svg" xml:space="preserve" viewBox="0 0 214.4 68.4" version="1.1" y="0px" x="0px" xmlns:xlink="http://www.w3.org/1999/xlink" enable-background="new 0 0 214.4 68.4">
		<polygon points="52.3 27.2 32.1 20.8 32.3 52.9" fill="#006078"/>
		<polygon points="52.3 27.1 11.9 68.4 40.5 68.3 60 47.6" fill="#0091CF"/>
		<polygon points="7.6 41.4 27.9 47.8 27.7 15.7" fill="#006078"/>
		<polygon points="7.6 41.4 48 0 19.5 0.2 0 20.8" fill="#0091CF"/>
	<g fill="#fff">
		<path d="m103.9 44c0 2.5-0.9 4.6-2.8 6.1s-4.2 2.3-7.1 2.3c-1.9 0-3.9-0.3-6-1s-4-1.7-5.6-3l3.2-4.5c2.7 2.1 5.6 3.1 8.6 3.1 0.9 0 1.7-0.2 2.2-0.6s0.8-0.9 0.8-1.5-0.4-1.2-1.1-1.7c-0.8-0.5-1.8-1-3.3-1.4-1.4-0.4-2.5-0.8-3.3-1.2-0.8-0.3-1.6-0.8-2.6-1.4-2-1.2-2.9-3-2.9-5.4s1-4.3 2.9-5.8 4.4-2.3 7.4-2.3 6.1 1 9.1 3.1l-2.7 4.8c-2.2-1.5-4.5-2.3-6.7-2.3s-3.3 0.6-3.3 1.8c0 0.7 0.4 1.2 1.1 1.6s1.9 0.8 3.5 1.3 2.8 0.9 3.5 1.2 1.5 0.7 2.5 1.3c1.7 1.1 2.6 3 2.6 5.5z"/>
		<path d="m131.3 52h-6.8v-3.1c-1.9 2.3-4.2 3.5-6.9 3.5s-5-0.8-6.9-2.4c-1.9-1.6-2.8-3.7-2.8-6.3s1-4.6 2.9-5.9 4.5-2 7.9-2h5.4v-0.1c0-2.8-1.5-4.1-4.4-4.1-1.2 0-2.6 0.2-4 0.7s-2.6 1.1-3.5 1.8l-3.2-4.7c3.4-2.5 7.3-3.7 11.6-3.7 3.1 0 5.7 0.8 7.7 2.4s3 4 3 7.4v16.5zm-7.2-9.8v-1.2h-4.5c-2.9 0-4.3 0.9-4.3 2.7 0 0.9 0.3 1.6 1 2.1s1.7 0.7 3 0.7 2.4-0.4 3.4-1.2c0.9-0.7 1.4-1.8 1.4-3.1z"/>
		<path d="m146.2 31.4v11.6c0 1 0.3 1.8 0.8 2.3 0.5 0.6 1.1 0.8 1.8 0.8 1.3 0 2.5-0.6 3.4-1.8l2.7 5c-2.2 2-4.6 3.1-7.1 3.1s-4.6-0.8-6.3-2.4-2.6-3.9-2.6-6.7v-11.9h-3v-5.2h3v-7.7h7.2v7.7h6.2v5.2h-6.1z"/>
		<path d="m172.3 32.5c-2.1 0-3.7 0.8-4.8 2.3s-1.6 3.5-1.6 6v11.2h-7.2v-25.8h7.2v3.4c0.9-1.1 2.1-2 3.5-2.7s2.8-1.1 4.2-1.2v6.8h-1.3z"/>
		<path d="m179 22.9c-0.8-0.8-1.2-1.8-1.2-3s0.4-2.2 1.2-3 1.8-1.2 3-1.2 2.2 0.4 3 1.2 1.2 1.8 1.2 3-0.4 2.2-1.2 3-1.8 1.2-3 1.2c-1.1 0-2.1-0.4-3-1.2zm6.6 29.1h-7.2v-25.8h7.2v25.8z"/>
		<path d="m214.4 52h-6.8v-3.1c-1.9 2.3-4.2 3.5-6.9 3.5s-5-0.8-6.9-2.4c-1.9-1.6-2.8-3.7-2.8-6.3s1-4.6 2.9-5.9 4.5-2 7.9-2h5.4v-0.1c0-2.8-1.5-4.1-4.4-4.1-1.2 0-2.6 0.2-4 0.7s-2.6 1.1-3.5 1.8l-3.2-4.7c3.4-2.5 7.3-3.7 11.6-3.7 3.1 0 5.7 0.8 7.7 2.4s3 4 3 7.4v16.5zm-7.3-9.8v-1.2h-4.5c-2.9 0-4.3 0.9-4.3 2.7 0 0.9 0.3 1.6 1 2.1s1.7 0.7 3 0.7 2.4-0.4 3.4-1.2c1-0.7 1.4-1.8 1.4-3.1z"/>
	</g>
</svg>
