<?xml version="1.0" encoding="UTF-8" standalone="no"?>
<!-- Generator: Adobe Illustrator 18.0.0, SVG Export Plug-In . SVG Version: 6.00 Build 0)  -->
<!DOCTYPE svg  PUBLIC '-//W3C//DTD SVG 1.1//EN'  'http://www.w3.org/Graphics/SVG/1.1/DTD/svg11.dtd'>
<svg id="Layer_1" xmlns="http://www.w3.org/2000/svg" xml:space="preserve" viewBox="0 311 222.2 70.9" version="1.1" y="0px" x="0px" xmlns:xlink="http://www.w3.org/1999/xlink" enable-background="new 0 311 222.2 70.9">
		<polygon points="54.3 339.2 33.2 332.6 33.5 365.8" fill="#006078"/>
		<polygon points="54.3 339.1 12.3 381.9 42 381.8 62.2 360.3" fill="#0091CF"/>
		<polygon points="7.9 354 29 360.6 28.7 327.2" fill="#006078"/>
		<polygon points="7.9 354 49.7 311 20.2 311.3 0 332.6" fill="#0091CF"/>
	<g fill="#393939">
		<path d="m107.7 356.6c0 2.6-0.9 4.8-2.9 6.3-1.9 1.6-4.4 2.3-7.3 2.3-1.9 0-4.1-0.3-6.3-1s-4.1-1.8-5.9-3.1l3.4-4.7c2.8 2.2 5.9 3.2 8.9 3.2 0.9 0 1.8-0.1 2.3-0.6s0.9-0.9 0.9-1.6c0-0.7-0.4-1.3-1.2-1.8-0.9-0.6-1.9-1-3.4-1.5-1.5-0.4-2.6-0.9-3.4-1.3-0.9-0.3-1.6-0.9-2.6-1.5-2-1.3-3.1-3.1-3.1-5.6s1-4.4 3.1-6c2-1.6 4.5-2.3 7.6-2.3s6.3 1 9.4 3.2l-2.8 5c-2.3-1.6-4.7-2.3-6.9-2.3s-3.4 0.6-3.4 1.9c0 0.7 0.4 1.3 1.2 1.6 0.7 0.4 1.9 0.9 3.7 1.3 1.6 0.6 2.9 0.9 3.7 1.3 0.7 0.3 1.6 0.7 2.6 1.3 1.5 1.4 2.4 3.3 2.4 5.9z"/>
		<path d="m136 365h-7v-3.2c-1.9 2.3-4.4 3.7-7.2 3.7s-5.1-0.9-7.2-2.5c-1.9-1.6-2.9-3.8-2.9-6.6s1-4.8 3.1-6.1c1.9-1.3 4.7-2 8.2-2h5.6v-0.3c0-2.9-1.6-4.2-4.5-4.2-1.3 0-2.6 0.1-4.1 0.7s-2.6 1.2-3.7 1.9l-3.4-4.8c3.5-2.6 7.6-3.8 12-3.8 3.2 0 5.9 0.9 8 2.5 2 1.6 3.1 4.1 3.1 7.6v17.1zm-7.4-10.3v-1.3h-4.7c-3.1 0-4.4 0.9-4.4 2.8 0 0.9 0.3 1.6 1 2.2s1.8 0.7 3.1 0.7 2.5-0.4 3.5-1.3c1-0.6 1.5-1.8 1.5-3.1z"/>
		<path d="m151.5 343.6v12c0 1 0.3 1.9 0.9 2.3 0.6 0.6 1.2 0.9 1.9 0.9 1.3 0 2.6-0.6 3.5-1.9l2.8 5.1c-2.3 2-4.8 3.2-7.3 3.2s-4.8-0.9-6.6-2.5c-1.8-1.6-2.6-4.1-2.6-6.9v-12.3h-3.1v-5.4h3.1v-8h7.5v8h6.4v5.4c-0.2 0.1-6.5 0.1-6.5 0.1z"/>
		<path d="m178.6 344.6c-2.2 0-3.8 0.9-5 2.3s-1.6 3.7-1.6 6.3v11.6h-7.5v-26.8h7.5v3.5c0.9-1.2 2.2-2 3.7-2.8 1.5-0.7 2.9-1.2 4.4-1.3v7h-1.5v0.2z"/>
		<path d="m185.5 334.7c-0.9-0.9-1.3-1.9-1.3-3.1s0.4-2.3 1.3-3.1c0.9-0.9 1.9-1.3 3.1-1.3s2.3 0.4 3.1 1.3c0.9 0.9 1.3 1.9 1.3 3.1s-0.4 2.3-1.3 3.1c-0.9 0.9-1.9 1.3-3.1 1.3-1.1 0-2.1-0.4-3.1-1.3zm6.9 30.3h-7.5v-26.8h7.5v26.8z"/>
		<path d="m222.2 365h-7v-3.2c-1.9 2.3-4.4 3.7-7.2 3.7s-5.1-0.9-7.2-2.5c-1.9-1.6-2.9-3.8-2.9-6.6s1-4.8 3.1-6.1c1.9-1.3 4.7-2 8.2-2h5.6v-0.3c0-2.9-1.6-4.2-4.5-4.2-1.3 0-2.6 0.1-4.1 0.7s-2.6 1.2-3.7 1.9l-3.4-4.8c3.5-2.6 7.6-3.8 12-3.8 3.2 0 5.9 0.9 8 2.5 2 1.6 3.1 4.1 3.1 7.6v17.1zm-7.6-10.3v-1.3h-4.7c-3.1 0-4.4 0.9-4.4 2.8 0 0.9 0.3 1.6 1 2.2s1.8 0.7 3.1 0.7c1.3 0 2.5-0.4 3.5-1.3 1.2-0.6 1.5-1.8 1.5-3.1z"/>
	</g>
</svg>
